<svg width="21" height="14" viewBox="0 0 21 14" fill="none" xmlns="http://www.w3.org/2000/svg">
<path d="M19.5677 5.98449H3.47559L7.03861 2.43874C7.43617 2.04306 7.4377 1.40001 7.04201 1.00245C6.64632 0.604829 6.00323 0.603357 5.60566 0.998994L0.298816 6.28024L0.297902 6.28121C-0.0986487 6.6769 -0.0999182 7.32202 0.297801 7.71903L0.298715 7.71999L5.60556 13.0012C6.00307 13.3968 6.64617 13.3955 7.04191 12.9978C7.43759 12.6002 7.43607 11.9572 7.0385 11.5615L3.47559 8.01574H19.5677C20.1287 8.01574 20.5834 7.56105 20.5834 7.00012C20.5834 6.43919 20.1287 5.98449 19.5677 5.98449Z" fill="#262626"/>
</svg>
