<svg width="100%" height="16%" viewBox="0 0 277 42" xmlns="http://www.w3.org/2000/svg">
    <path fill-rule="evenodd" clip-rule="evenodd" d="M23.5606 19.975C23.4563 17.1512 23.4215 13.6282 23.4215 10.1283C23.4215 5.74 23.012 0.165741 27.1106 0.00349671C28.7292 -0.0583106 29.6447 0.710415 30.5873 1.42506C31.3097 1.98519 31.9355 2.2247 32.0977 3.22135C32.4145 5.09874 30.9968 6.09538 30.2049 7.00704C28.227 9.28618 26.6818 12.2143 25.3298 15.2429C24.6345 16.761 23.9469 18.1401 23.5606 19.975Z" fill="#BB8E35"/>
    <path fill-rule="evenodd" clip-rule="evenodd" d="M22.0965 20.3033C20.9145 15.1695 18.3649 11.5306 15.657 7.71784C15.2707 7.18089 14.7917 6.55894 14.2856 5.91769C13.8375 5.35756 13.2465 4.63519 13.2929 3.7892C13.3508 2.75779 14.4517 1.91567 15.1393 1.42507C16.4064 0.517277 18.8555 -0.560475 20.4393 0.714301C22.1854 2.12042 22.3708 6.48554 22.3708 9.70338C22.3785 13.5702 22.1158 16.6837 22.0965 20.3033Z" fill="#BB8E35"/>
    <path fill-rule="evenodd" clip-rule="evenodd" d="M24.6462 24.5178C25.3795 17.8291 28.194 11.5394 32.6928 6.53575C33.5542 5.59705 34.7131 3.87417 36.5557 4.60427C37.9078 5.12964 39.6229 7.30834 39.4877 9.43297C39.3641 11.4185 37.2549 11.7507 35.7986 12.4615C30.7574 14.9299 27.443 19.7123 24.6462 24.5178Z" fill="#BB8E35"/>
    <path fill-rule="evenodd" clip-rule="evenodd" d="M20.957 24.6607C20.8565 24.7573 20.7213 24.4328 20.6286 24.2744C19.8947 23.0692 19.18 21.7288 18.3108 20.539C15.8992 17.1784 12.74 14.4238 9.08225 12.4924C7.71862 11.7816 5.53219 11.4108 5.76783 9.0853C5.94926 8.07882 6.31883 7.11557 6.85718 6.24604C7.19797 5.68717 7.70583 5.24959 8.30893 4.99517C8.91204 4.74076 9.57986 4.68238 10.218 4.82831C11.6048 5.18757 12.4778 6.33488 13.3894 7.38175C17.1442 11.6928 19.7556 17.9778 20.957 24.6607Z" fill="#BB8E35"/>
    <path fill-rule="evenodd" clip-rule="evenodd" d="M22.0966 32.8927C24.4144 32.5721 25.9287 34.6194 25.9287 36.8677C25.9287 38.6137 24.9668 40.2323 23.5143 40.7306C20.7871 41.6964 18.9638 38.8301 19.1106 36.5664C19.2342 34.7199 20.339 33.1322 22.0966 32.8927Z" fill="#BB8E35"/>
    <path fill-rule="evenodd" clip-rule="evenodd" d="M25.975 27.1678C25.9055 27.1446 25.975 27.1253 25.975 27.0712C27.5781 22.9572 30.1779 18.959 33.4035 16.139C34.4605 15.1378 35.6193 14.2496 36.8608 13.4891C38.2167 12.7474 40.4418 12.4268 41.8826 13.3461C42.8909 13.9951 43.9377 15.3471 43.8682 16.9464C43.7987 18.6229 42.4119 19.7625 40.7469 19.9286C39.7773 20.0213 38.9004 19.8707 38.0969 19.9286C32.1364 20.3458 28.8374 23.4362 25.975 27.1678Z" fill="#BB8E35"/>
    <path fill-rule="evenodd" clip-rule="evenodd" d="M19.4891 27.4034C19.4891 27.4575 19.4427 27.4305 19.4427 27.4034C16.6807 23.7413 13.3199 20.5428 7.08124 20.2106C4.9064 20.0947 2.95174 20.3342 1.87784 19.0749C0.33266 17.2632 2.05168 14.4625 3.48869 13.5856C5.92236 12.0907 9.05135 13.9333 10.7279 15.2428C12.0132 16.2671 13.1864 17.4247 14.2277 18.6963C16.5146 21.3502 18.3572 23.9693 19.4891 27.4034Z" fill="#BB8E35"/>
    <path fill-rule="evenodd" clip-rule="evenodd" d="M25.9364 30.6677C25.8514 30.7101 25.7509 30.826 25.8398 30.6677C28.0858 26.3336 31.9435 23.0544 36.5827 21.5356C38.2283 21.0064 40.5654 20.6394 42.4505 21.1107C44.2506 21.5588 45.9967 24.5874 44.6253 26.6927C44.0536 27.5773 42.9295 28.1027 41.5041 28.0177C38.5103 27.84 36.6483 25.8196 33.3185 26.1248C31.7603 26.31 30.2683 26.8621 28.9649 27.7357C27.791 28.5275 26.7657 29.52 25.9364 30.6677Z" fill="#BB8E35"/>
    <path fill-rule="evenodd" clip-rule="evenodd" d="M19.8213 30.9033C17.8899 29.1688 16.0086 27.021 12.6285 26.5034C10.9735 26.2394 9.27741 26.4705 7.75346 27.1678C6.18123 27.8477 3.62782 28.968 1.64998 27.8748C-0.165604 26.8743 -0.667788 23.695 1.08599 22.2464C2.49597 21.0644 5.08415 20.9021 7.23582 21.3C9.08973 21.7012 10.8546 22.4383 12.4431 23.4748C15.7073 25.5222 17.9594 27.6082 19.7827 30.8569C19.7557 30.8956 19.7943 30.8994 19.8213 30.9033Z" fill="#BB8E35"/>
    <path fill-rule="evenodd" clip-rule="evenodd" d="M85.3022 33.1554H81.2577C81.3195 32.2051 81.3543 31.2239 81.3273 30.1925C80.9139 30.15 80.7092 30.6368 80.462 30.9149C79.965 31.4859 79.3809 31.9748 78.7314 32.3635C76.2591 33.7349 71.2759 33.4451 67.3125 33.4451C61.4601 33.4451 55.5652 33.5147 54.02 29.5436C52.9152 26.7197 53.4947 21.9181 55.1789 20.0754C56.9868 18.1015 61.039 17.9817 65.296 17.9817C70.6346 17.9817 76.2552 17.4602 79.5271 19.4303C80.1413 19.8166 80.4117 20.4193 81.1843 20.7283C81.3195 17.5916 81.4972 14.5476 79.8903 12.8517C77.7425 10.5726 72.0871 10.8314 67.4593 10.8314C62.9512 10.8314 58.8912 10.8314 58.8642 15.239H54.669C53.8114 7.63672 60.6489 7.66762 67.2391 7.36245C73.5048 7.06886 81.2037 7.17317 83.788 10.9009C85.507 13.3887 85.3022 17.2323 85.3022 21.3039V33.1554ZM58.5667 23.0383C57.6821 24.1972 57.6589 27.0056 58.4277 28.1722C59.49 29.7869 62.4258 29.7174 65.072 29.8333C66.9107 29.9144 69.0353 30.0689 71.1445 29.9762C75.3938 29.7908 79.6198 30.1114 80.7517 27.1563C81.0918 26.2484 81.0918 25.248 80.7517 24.3401C79.8439 22.1305 76.3093 21.6361 73.9606 21.5241C70.708 21.3657 67.1579 21.4584 64.2762 21.5936C61.9855 21.7056 59.6715 21.6129 58.5667 23.0383Z" fill="#BB8E35"/>
    <path fill-rule="evenodd" clip-rule="evenodd" d="M183.568 33.1554H179.597C179.556 32.1673 179.579 31.1776 179.667 30.1925C179.08 30.1925 178.848 30.8685 178.508 31.2046C176.097 33.6151 171.033 33.4451 165.934 33.4451C160.734 33.4451 155.349 33.6267 153.07 30.8454C152.104 29.6594 151.776 27.5309 151.776 25.7115C151.776 22.6559 152.668 20.1295 154.866 18.9938C156.558 18.1247 160.027 17.9817 163.033 17.9817C168.503 17.9817 174.714 17.383 177.913 19.4999C178.488 19.8862 178.685 20.427 179.435 20.7283C179.725 17.0198 179.597 13.6475 177.268 12.1293C175.093 10.7155 171.581 10.8314 168.452 10.8314C163.288 10.8314 157.049 9.97767 157.177 15.239H152.927C152.155 7.5131 158.996 7.66761 165.567 7.36244C172.037 7.05727 179.821 7.19248 182.259 11.1906C183.804 13.7286 183.561 17.5104 183.561 21.524L183.568 33.1554ZM157.192 22.6791C156.219 23.5675 155.616 26.5884 156.69 28.1722C157.594 29.4972 159.904 29.7174 162.256 29.8333C164.338 29.9221 166.463 29.9878 168.615 29.9762C173.034 29.953 177.7 30.0998 178.944 27.3726C179.314 26.4525 179.364 25.4351 179.087 24.4831C178.245 22.0919 174.556 21.7017 172.296 21.5936C169.044 21.4429 165.606 21.4506 162.542 21.5936C160.588 21.6902 158.397 21.5781 157.192 22.6791Z" fill="#BB8E35"/>
    <path fill-rule="evenodd" clip-rule="evenodd" d="M117.164 19.0634H113.05C113.05 16.0927 113.154 13.2689 111.528 12.0598C109.902 10.8507 106.421 10.7039 103.655 10.8314C99.8579 11.0014 96.1186 11.4263 94.8399 13.8638C93.6269 16.1816 93.6115 19.7046 93.6115 22.9688V33.1554H89.6404V7.6599H93.6115C93.6694 8.22389 93.542 10.6382 93.681 11.1366C94.3802 10.8198 94.5463 10.1167 95.0562 9.61842C97.7062 7.04956 103.748 7.02639 109.075 7.52471C111.393 7.7449 113.494 8.23162 114.784 9.4021C117.064 11.4688 117.257 14.563 117.164 19.0634Z" fill="#BB8E35"/>
    <path fill-rule="evenodd" clip-rule="evenodd" d="M116.878 7.72166C118.273 7.55169 119.988 7.70237 121.514 7.64829C125.238 13.9874 128.973 20.6278 132.639 27.2296C132.979 27.8399 133.798 29.8448 134.304 29.9028C134.965 29.9878 135.753 27.8477 136.038 27.303C139.446 20.7978 142.903 14.0956 146.298 7.64829H150.98C147.365 14.4355 143.722 21.6013 139.998 28.5314C138.171 31.9386 136.452 35.6315 134.003 38.4322C132.759 39.9794 131.019 41.0504 129.077 41.4646C127.034 41.9475 124.527 42.0634 121.637 41.9706V38.3472C124.728 38.4669 127.378 38.5326 129.294 37.4124C130.959 36.435 131.785 34.7624 132.77 33.1631C132.457 32.9931 131.832 33.1361 131.395 33.0936C126.566 24.6221 121.769 16.1275 116.878 7.72166Z" fill="#BB8E35"/>
    <path fill-rule="evenodd" clip-rule="evenodd" d="M191.055 7.25427V16.7146C194.284 14.8373 199.553 14.3428 201.913 17.8349C204.44 21.609 202.794 27.5657 203.304 33.4065H200.233C199.962 26.5768 201.863 17.8117 195.516 18.1092C189.502 18.395 191.294 26.5343 191.055 33.4065H187.729V7.25427H191.055Z" fill="#BB8E35"/>
    <path fill-rule="evenodd" clip-rule="evenodd" d="M274.761 20.8789C270.512 22.6675 267.228 25.4024 262.786 26.994C262.689 26.0784 262.148 25.6033 261.685 25.0625C264.482 23.2276 267.599 21.7056 270.57 20.0406C262.569 11.3335 255.214 30.3509 266.123 30.884C270.04 31.0694 271.593 28.431 272.52 25.0432C273.366 25.3831 274.502 25.4797 275.611 25.5956C274.838 36.4543 257.969 35.7204 257.25 25.3175C256.555 15.5558 270.554 10.5339 274.761 20.8789Z" fill="#BB8E35"/>
    <path fill-rule="evenodd" clip-rule="evenodd" d="M213.587 15.5944C219.648 14.3003 224.206 17.8928 224.991 22.5477C226.783 33.4103 211.157 38.239 207.19 28.1026C205.081 22.7331 208.422 16.6876 213.587 15.5944ZM212.197 29.7676C221.425 36.578 226.254 15.6678 214.418 18.3718C209.624 19.4766 208.268 26.8858 212.197 29.7676Z" fill="#BB8E35"/>
    <path fill-rule="evenodd" clip-rule="evenodd" d="M240.84 17.8195C242.617 17.0469 243.061 15.6794 244.726 15.3124C254.724 13.1105 254.384 24.0736 253.905 33.391H250.853C250.324 27.079 252.819 18.2328 246.967 18.0937C240.84 17.9508 243.239 26.851 242.776 33.391H239.72C239.496 26.542 241.35 17.5529 235.003 18.0937C229.437 18.5534 231.913 27.303 231.388 33.391H228.332C227.884 24.147 227.436 13.0951 237.499 15.3124C238.874 15.6176 239.786 16.6451 240.84 17.8195Z" fill="#BB8E35"/>
</svg>