<svg width="34" height="28" viewBox="0 0 34 28" fill="none" xmlns="http://www.w3.org/2000/svg">
<g clip-path="url(#clip0)">
<path d="M16.5919 27.9932C18.0029 27.9932 19.1467 26.8257 19.1467 25.3856C19.1467 23.9455 18.0029 22.7781 16.5919 22.7781C15.1809 22.7781 14.0371 23.9455 14.0371 25.3856C14.0371 26.8257 15.1809 27.9932 16.5919 27.9932Z" fill="#D0A550"/>
<path d="M3.88672 6.55337C3.88672 8.00201 6.14412 8.78151 7.07682 9.16091C9.00167 10.0444 10.6827 11.3998 11.9701 13.1067L15.7144 18.2597C15.3495 16.68 14.9575 15.0382 14.4708 13.493C13.5584 10.6854 10.3413 3.10425 6.75916 3.10425C5.40742 3.10425 3.88672 5.17372 3.88672 6.55337Z" fill="#D0A550"/>
<path d="M9.46289 2.58684C9.46289 3.89061 10.6524 4.82878 11.3959 5.78763C13.361 8.23881 14.765 11.107 15.5052 14.1828C15.5998 14.6657 15.6133 14.7829 15.7079 15.183C15.7453 15.3673 15.7927 15.5492 15.8499 15.728L15.9918 16.0936C16.0083 16.1346 16.0287 16.1739 16.0526 16.2109C16.0526 15.4314 16.2216 15.5211 16.2216 14.6588C16.2216 12.2513 16.6339 2.12466 15.1605 0.565656C14.8471 0.255846 14.4441 0.0574724 14.0115 0L12.8422 0C11.2066 0.234541 9.46289 1.37965 9.46289 2.58684Z" fill="#D0A550"/>
<path d="M1.01367 11.3821C1.01367 13.1619 1.68954 14.0448 4.07536 14.2932C7.17084 14.6105 8.35361 13.8586 11.8681 17.0525C13.4835 18.508 14.1053 20.2464 14.3959 19.4807C14.5446 19.1151 12.9968 16.2316 12.8144 15.9143C8.1103 7.93989 1.01367 7.1052 1.01367 11.3821Z" fill="#D0A550"/>
<path d="M0 17.2456C0 22.5435 6.01524 18.6253 8.11043 18.6253C11.8885 18.6253 13.4228 21.964 14.7002 22.0744C14.4636 21.1776 12.4495 18.5908 11.7872 17.9699C10.5363 16.7826 9.05273 15.8797 7.43456 15.321C6.17436 14.8932 4.87056 14.6132 3.54831 14.4863C2.02761 14.4863 0 15.7349 0 17.2456Z" fill="#D0A550"/>
<path d="M29.2984 6.55337C29.2984 8.00201 27.0343 8.78151 26.1083 9.16091C24.1819 10.0449 22.4988 11.4002 21.2083 13.1067L17.4707 18.2804C17.8289 16.7007 18.2209 15.0589 18.7143 13.5137C19.5997 10.6854 22.8439 3.10425 26.426 3.10425C27.7777 3.10425 29.2984 5.17372 29.2984 6.55337Z" fill="#D0A550"/>
<path d="M23.7239 2.58684C23.7239 3.89061 22.5344 4.81498 21.7909 5.78763C19.8258 8.23881 18.4218 11.107 17.6816 14.1828C17.587 14.6657 17.5735 14.7829 17.4789 15.183C17.4415 15.3673 17.3941 15.5492 17.3369 15.728L17.195 16.0936C17.1785 16.1346 17.1581 16.1739 17.1342 16.2109C17.1342 15.4314 16.9652 15.5211 16.9652 14.6588C16.9652 12.2513 16.5529 2.12466 18.0263 0.565656C18.3397 0.255846 18.7426 0.0574724 19.1753 0L20.3513 0C21.9801 0.234541 23.7239 1.37965 23.7239 2.58684Z" fill="#D0A550"/>
<path d="M32.1716 11.3822C32.1716 13.1619 31.4957 14.0449 29.1099 14.2932C26.0144 14.6105 24.8316 13.8586 21.3171 17.0525C19.7018 18.5081 19.08 20.2464 18.7893 19.4807C18.6407 19.1151 20.1884 16.2316 20.3709 15.9143C25.102 7.96063 32.1716 7.12595 32.1716 11.4029V11.3822Z" fill="#D0A550"/>
<path d="M33.1845 17.2456C33.1845 22.5435 27.1693 18.6253 25.0741 18.6253C21.296 18.6253 19.7618 21.964 18.4844 22.0744C18.7209 21.1776 20.735 18.5908 21.3974 17.9699C22.6404 16.7859 24.1144 15.8832 25.7229 15.321C26.9919 14.8912 28.3048 14.6111 29.6362 14.4863C31.1299 14.4863 33.1845 15.7349 33.1845 17.2456Z" fill="#D0A550"/>
</g>
<defs>
<clipPath id="clip0">
<rect width="33.1852" height="28" fill="white"/>
</clipPath>
</defs>
</svg>
