<svg width="195" height="232" viewBox="0 0 195 232" fill="none" xmlns="http://www.w3.org/2000/svg">
<path opacity="0.1" d="M177.093 74.5517C177.093 74.5517 138.253 78.0319 123.066 69.2347C121.483 68.3002 121.322 66.0767 122.84 65.0133C131.597 58.8263 137.542 48.8046 137.995 37.075C138.673 18.675 124.876 2.5307 106.555 0.27501C86.4242 -2.20625 68.3292 12.3913 66.4228 32.4025C65.3888 43.1976 69.2986 53.316 76.2781 60.5664C77.5706 61.8876 77.0213 64.0788 75.2764 64.6911C58.7001 70.4914 21.2177 59.793 21.2177 59.793C11.2655 58.1174 1.7333 64.8844 0.0853706 74.8417C-0.884002 84.8956 6.51554 94.4984 16.5001 96.1419L52.3346 102.136C55.9859 102.748 58.8617 105.648 59.2494 109.322C62.0283 135.326 24.8044 195.94 24.8044 195.94C20.1191 205.511 24.1581 217.176 33.7549 221.848C43.3517 226.521 55.0488 222.493 59.7341 212.922L82.9021 172.03C85.8102 166.906 93.436 167.615 95.3424 173.19L110.4 217.691C113.211 227.971 123.939 234.126 134.247 231.322C144.554 228.519 150.726 217.82 147.915 207.541C147.915 207.541 122.808 141.03 130.401 116.024C131.468 112.48 134.861 110.159 138.544 110.256L174.863 111.094C184.977 111.319 194.057 103.296 194.994 93.2417C195.252 83.22 187.207 74.7772 177.093 74.5517ZM84.7762 28.9545C85.0347 26.2155 87.4582 24.2176 90.2047 24.4753C92.9513 24.7331 94.9547 27.15 94.6962 29.889C94.4377 32.6281 92.0142 34.626 89.2677 34.3682C86.5211 34.1104 84.5177 31.6936 84.7762 28.9545ZM91.4972 147.765C88.1367 147.443 85.6487 144.446 85.9718 141.095C86.2949 137.743 89.3 135.262 92.6605 135.584C96.021 135.906 98.509 138.903 98.1859 142.255C97.8628 145.606 94.8577 148.055 91.4972 147.765ZM93.6622 125.144C90.3017 124.821 87.8136 121.825 88.1367 118.473C88.4599 115.122 91.4649 112.641 94.8254 112.963C98.1859 113.285 100.674 116.282 100.351 119.633C100.028 123.017 97.0227 125.466 93.6622 125.144ZM95.7948 102.554C92.4343 102.232 89.9462 99.2354 90.2694 95.8841C90.5925 92.5328 93.5975 90.0515 96.958 90.3737C100.319 90.696 102.807 93.6928 102.483 97.0441C102.16 100.428 99.1553 102.877 95.7948 102.554ZM115.473 50.8025L115.053 51.1247C112.727 52.9937 107.912 56.8606 100.189 56.1195C91.5295 55.3139 87.3935 49.6746 86.0364 47.8379C85.0671 46.4844 85.3579 44.6154 86.6827 43.6487C88.0398 42.682 89.9139 42.972 90.8833 44.2932C92.6928 46.7422 95.4393 49.6424 100.739 50.158C106.006 50.6414 109.172 48.1279 111.272 46.4522L111.725 46.0978C113.017 45.0666 114.924 45.2921 115.958 46.5811C117.024 47.9023 116.798 49.7713 115.473 50.8025ZM115.118 36.3661C112.371 36.1083 110.368 33.6915 110.626 30.9524C110.885 28.2134 113.308 26.2155 116.055 26.4732C118.801 26.731 120.805 29.1479 120.546 31.8869C120.255 34.626 117.832 36.6239 115.118 36.3661Z" fill="#C59F54"/>
</svg>
