<svg width="242" height="282" viewBox="0 0 242 282" fill="none" xmlns="http://www.w3.org/2000/svg">
<g opacity="0.1">
<path d="M96.8202 224.61C96.8202 224.61 86.496 220.563 73.9927 214.924C73.9083 215.145 73.8044 215.323 73.7201 215.544C68.701 228.32 74.9973 242.735 87.7416 247.742C100.518 252.761 114.933 246.465 119.94 233.72C120.024 233.499 120.065 233.298 120.149 233.077C107.132 228.689 96.8202 224.61 96.8202 224.61Z" fill="#C6A056"/>
<path d="M195.695 222.567C161.149 143.351 198.04 112.666 195.851 88.5279C194.515 73.7255 183.316 64.0977 174.547 58.7256L178.16 49.5385C180.557 43.5417 177.565 36.6831 171.556 34.3182C165.547 31.9533 158.689 34.9451 156.324 40.9541L152.71 50.1411C142.632 48.1052 127.868 47.5382 116.839 57.4783C98.8528 73.7018 104.984 121.271 25.7671 155.818C-0.762794 167.407 103.329 208.025 103.329 208.025C103.329 208.025 207.284 249.097 195.695 222.567Z" fill="#C6A056"/>
</g>
</svg>
