<svg width="194" height="326" viewBox="0 0 194 326" fill="none" xmlns="http://www.w3.org/2000/svg">
<path d="M184.408 173.357L131.946 165.959L157.205 146.88C162.179 143.143 163.034 135.978 159.304 131.072C155.573 126.088 148.5 124.998 143.526 128.736L100.158 161.52L41.5564 153.266L77.5412 106.465L133.034 99.2224C139.174 98.4436 143.449 92.6811 142.671 86.5292C141.894 80.3772 136.221 75.9385 130.081 76.7172L97.1269 81.0002L129.381 39.0269C133.189 34.1209 132.101 26.9566 127.205 23.2188C122.309 19.4809 115.158 20.2596 111.428 25.1656L79.0956 67.2168L75.0541 35.7562C74.2769 29.6043 68.5256 25.3213 62.3856 26.1C56.2457 26.8788 51.8156 32.5635 52.5928 38.7154L58.3441 93.2262L21.1935 140.417L-0.879242 86.1398L22.1262 33.9652C24.5355 28.2805 22.3593 21.3498 16.608 18.9358C10.9343 16.5217 3.31767 19.5587 0.908325 25.2434L-12.926 56.3146L-32.8226 7.25487C-35.1542 1.4923 -40.9055 -1.54473 -46.6569 0.791452C-52.4083 3.12763 -54.3513 9.35743 -52.0197 15.12L-32.0454 64.2576L-60.8798 51.798C-66.5535 49.3839 -73.0043 52.1095 -75.4137 57.872C-77.823 63.5567 -75.4137 70.4095 -69.74 72.8236L-19.9209 94.0828L1.99641 148.126L-55.2839 139.872L-89.0926 95.5624C-92.8232 90.5785 -99.9735 90.267 -104.87 94.0049C-109.844 97.7428 -110.777 104.284 -107.046 109.268L-86.9164 135.277L-139.223 127.957C-145.363 127.101 -151.036 131.539 -151.891 137.691C-152.746 143.843 -148.471 149.684 -142.409 150.54L-89.9475 157.938L-115.285 177.562C-120.259 181.3 -121.191 188.698 -117.461 193.682C-113.73 198.666 -106.58 199.289 -101.606 195.551L-58.1596 162.377L-0.257477 170.554L-36.2423 217.355L-91.2687 224.909C-97.4087 225.687 -101.295 231.839 -100.44 237.991C-99.6626 244.143 -94.4553 248.27 -88.3154 247.492L-55.7503 242.897L-88.0045 284.871C-91.8128 289.777 -90.7247 296.941 -85.8283 300.679C-80.9319 304.494 -73.7815 303.638 -69.9732 298.732L-37.6413 256.681L-33.1335 288.453C-32.3562 294.605 -26.3717 299.121 -20.2318 298.265C-14.0918 297.486 -9.97261 291.568 -10.7498 285.416L-18.4442 231.294L16.8411 185.116L39.0693 239.86L18.1624 291.178C15.753 296.863 19.2505 303.249 24.9241 305.663C30.5977 308.077 36.5823 305.74 38.9916 300.056L51.1161 269.685L71.0127 318.745C73.3443 324.508 79.0956 327.545 84.847 325.209C90.5983 322.872 92.5414 316.643 90.2097 310.88L70.2354 261.742L101.168 273.345C106.842 275.759 114.381 272.567 116.79 266.882C119.2 261.197 115.236 254.967 109.562 252.553L58.1887 231.917L35.8828 177.017L95.9611 184.804L130.236 229.347C133.967 234.331 141.428 235.032 146.324 231.372C151.298 227.634 152.542 220.47 148.811 215.486L128.837 188.854L181.221 196.174C187.361 197.03 193.035 192.592 193.89 186.44C194.744 180.054 190.548 174.214 184.408 173.357Z" fill="#C99338" fill-opacity="0.1"/>
</svg>
