<svg width="165" height="301" viewBox="0 0 165 301" fill="none" xmlns="http://www.w3.org/2000/svg">
<g opacity="0.1">
<path d="M56.309 34.9553C53.512 32.8792 66.6496 0 73.0488 0C81.9485 0 159.46 43.853 164.291 52.1152C167.088 56.8183 150.179 84.8249 146.026 86.2231C141.83 87.5789 59.1484 37.0314 56.309 34.9553Z" fill="#C6A056"/>
<path d="M111.275 270.999C101.147 225.79 97.7986 219.053 97.5867 209.732C96.612 166.811 131.702 96.1376 133.694 92.0278C115.132 82.4521 77.2023 59.6146 58.5979 48.1747L57.5384 47.5815C40.1205 128.297 1.25877 161.854 0.0721546 187.149C-1.2416 214.52 15.7101 219.477 24.3978 243.458C33.4246 268.457 34.9079 276.931 55.6313 292.735C82.5845 313.369 115.471 291.294 111.275 270.999ZM23.5079 175.158L19.3123 175.709C19.0157 173.675 18.6343 171.641 18.0833 169.65L22.1517 168.548C22.745 170.709 23.2112 172.955 23.5079 175.158ZM16.9815 156.176C18.1257 158.125 19.1428 160.116 19.9904 162.193L16.0915 163.845C15.2863 161.938 14.354 160.074 13.3369 158.295L16.9815 156.176ZM13.3369 213.46L9.98889 210.876C11.2603 209.223 12.4045 207.529 13.4216 205.749L17.1086 207.868C15.9644 209.817 14.693 211.681 13.3369 213.46ZM20.0751 201.809L16.1763 200.199C16.9391 198.292 17.6172 196.343 18.1257 194.351L22.2365 195.453C21.6432 197.614 20.9227 199.775 20.0751 201.809ZM23.974 182.107C23.974 184.352 23.8469 186.598 23.5502 188.843L19.3547 188.293C19.609 186.259 19.7361 184.183 19.7361 182.107L23.974 181.895V182.107ZM59.8692 292.269L56.1822 290.15C57.2841 288.201 58.5555 286.337 59.9116 284.557L63.2596 287.142C62.0306 288.752 60.8863 290.489 59.8692 292.269ZM67.3703 282.439L64.3614 279.431C65.9295 277.863 67.6246 276.338 69.4045 274.982L71.9897 278.329C70.3793 279.6 68.8112 280.998 67.3703 282.439ZM77.16 274.897L75.041 271.253C76.9904 270.109 79.0246 269.135 81.0588 268.245L82.7116 272.143C80.7622 272.948 78.8975 273.88 77.16 274.897ZM88.5176 270.152L87.4157 266.042C89.5771 265.448 91.7808 265.025 94.0269 264.728L94.5778 268.923C92.5436 269.219 90.5094 269.601 88.5176 270.152ZM106.953 268.88C104.961 268.626 102.927 268.499 100.935 268.499L100.765 264.262H100.935C103.138 264.262 105.342 264.389 107.503 264.686L106.953 268.88Z" fill="#C6A056"/>
</g>
</svg>
