<svg width="187" height="334" viewBox="0 0 187 334" fill="none" xmlns="http://www.w3.org/2000/svg">
<g opacity="0.1">
<path d="M101.491 248.157C95.2558 238.149 88.9388 224.19 83.0233 208.982C95.2227 215.424 110.026 211.255 97.0812 189.205C90.6646 178.245 84.1934 161.887 78.358 144.713C86.9056 148.946 96.7197 145.046 87.9974 128.196C74.1185 101.251 60.8984 32.3702 60.8984 32.3702C59.3948 21.0257 46.8555 19.7329 41.6389 28.2406C41.6389 28.2406 -1.51168 88.7023 -22.4895 104.142C-34.4646 112.963 -29.3788 121.153 -21.2408 123.296C-34.0809 137.129 -46.903 149.635 -56.4622 155.893C-74.6713 167.834 -63.432 179.412 -50.0415 180.564C-62.0808 192.401 -73.6604 202.557 -82.7442 208.182C-116.662 229.201 -63.9889 250.229 -51.0639 225.139C-64.9571 252.028 -30.8655 257.252 -18.5043 229.549C-35.3276 265.453 1.7699 266.32 9.27654 232.15C1.78483 266.284 36.1842 278.972 37.8571 239.964C36.4502 273.208 70.4729 282.445 69.554 248.886C70.3066 276.916 125.877 287.33 101.491 248.157Z" fill="#C8A45D"/>
<path d="M7.5257 240.245C3.57595 258.289 -8.67426 266.578 -16.824 265.054C-20.9549 277.604 -23.569 289.127 -20.0658 290.898C-15.7437 293.098 -4.2102 296.674 6.02464 296.911C12.9521 297.085 16.3081 284.792 17.8885 271.374C10.2354 268.476 3.90124 256.926 7.5257 240.245Z" fill="#C8A45D"/>
</g>
</svg>
