<svg width="21" height="21" viewBox="0 0 21 21" fill="none" xmlns="http://www.w3.org/2000/svg">
<path d="M6.125 9.625H7.875V11.375H6.125V9.625ZM6.125 13.125H7.875V14.875H6.125V13.125ZM9.625 9.625H11.375V11.375H9.625V9.625ZM9.625 13.125H11.375V14.875H9.625V13.125ZM13.125 9.625H14.875V11.375H13.125V9.625ZM13.125 13.125H14.875V14.875H13.125V13.125Z" fill="#D0A550"/>
<path d="M4.375 19.25H16.625C17.5901 19.25 18.375 18.4651 18.375 17.5V5.25C18.375 4.28488 17.5901 3.5 16.625 3.5H14.875V1.75H13.125V3.5H7.875V1.75H6.125V3.5H4.375C3.40987 3.5 2.625 4.28488 2.625 5.25V17.5C2.625 18.4651 3.40987 19.25 4.375 19.25ZM16.625 7L16.6259 17.5H4.375V7H16.625Z" fill="#D0A550"/>
</svg>
