<svg width="20" height="20" viewBox="0 0 20 20" fill="none" xmlns="http://www.w3.org/2000/svg">
<g clip-path="url(#clip0)">
<path d="M19.7725 14.2803C19.6126 13.8796 19.1581 13.6844 18.7574 13.8444C18.3567 14.0043 18.1615 14.4588 18.3215 14.8595C18.5248 15.369 18.4581 15.9507 18.1431 16.4157C17.8278 16.8809 17.3231 17.1478 16.7583 17.1478H3.24486C2.62881 17.1478 2.08174 16.8263 1.78138 16.2878C1.48056 15.7484 1.4947 15.1127 1.8192 14.5873L8.57593 3.64769C8.88359 3.14956 9.41652 2.85218 10.0016 2.85218C10.5867 2.85218 11.1196 3.14956 11.4273 3.64769L16.4244 11.7385C16.6511 12.1056 17.1325 12.2194 17.4995 11.9926C17.8666 11.7659 17.9804 11.2845 17.7536 10.9175L12.7564 2.82667C12.1621 1.86433 11.1322 1.28979 10.0016 1.28979C8.87089 1.28979 7.84105 1.86437 7.24667 2.82667L0.489937 13.7663C-0.13647 14.7806 -0.163736 16.0077 0.416929 17.0489C0.997126 18.0891 2.05428 18.7101 3.24486 18.7101H16.7583C17.8497 18.7101 18.8258 18.1932 19.4365 17.292C20.0426 16.3976 20.1681 15.2717 19.7725 14.2803Z" fill="#EB4E4E"/>
<path d="M10.0018 15.6245C10.4333 15.6245 10.783 15.2748 10.783 14.8433C10.783 14.4119 10.4333 14.0621 10.0018 14.0621H10.0014C9.56999 14.0621 9.22046 14.4119 9.22046 14.8433C9.22046 15.2748 9.57038 15.6245 10.0018 15.6245Z" fill="#EB4E4E"/>
<path d="M10.7828 12.1092V6.36748C10.7828 5.93603 10.4331 5.5863 10.0016 5.5863C9.57019 5.5863 9.22046 5.93603 9.22046 6.36748V12.1092C9.22046 12.5406 9.57019 12.8903 10.0016 12.8903C10.4331 12.8903 10.7828 12.5406 10.7828 12.1092Z" fill="#EB4E4E"/>
</g>
<defs>
<clipPath id="clip0">
<rect width="20" height="20" fill="white"/>
</clipPath>
</defs>
</svg>
