<svg width="228" height="173" viewBox="0 0 228 173" fill="none" xmlns="http://www.w3.org/2000/svg">
       <path d="M192.418 158.463C205.711 141.294 212.925 120.179 212.924 98.4476C212.924 44.0779 168.94 0 114.686 0C60.4318 0 16.4309 44.0779 16.4309 98.4476C16.4293 120.179 23.6437 141.294 36.9371 158.463H192.418Z" fill="#F5F5F5"/>
       <path d="M126.626 124.832C126.239 124.841 125.86 124.715 125.554 124.476C125.248 124.237 125.035 123.899 124.949 123.52C124.864 123.14 124.912 122.743 125.085 122.396C125.258 122.048 125.546 121.771 125.9 121.612C126.311 121.411 126.783 121.379 127.217 121.524C127.65 121.669 128.009 121.979 128.216 122.387C128.316 122.581 128.376 122.793 128.392 123.011C128.409 123.228 128.382 123.447 128.313 123.654C128.244 123.861 128.135 124.052 127.991 124.216C127.847 124.381 127.673 124.514 127.477 124.61L127.352 124.667C127.126 124.776 126.878 124.832 126.626 124.832Z" fill="#2D2B2B"/>
       <path d="M178.077 83.0183H177.824L126.751 123.081L120.384 118.657C118.734 117.516 116.776 116.904 114.771 116.904C112.766 116.904 110.809 117.516 109.159 118.657L102.664 123.145L51.4695 83.0183L66.16 75.3508H163.386L178.077 83.0183Z" fill="#566275"/>
       <path d="M102.668 124.832C102.289 124.832 101.922 124.707 101.622 124.475L50.4239 84.3591C50.2013 84.1817 50.0266 83.9512 49.9156 83.6888C49.8046 83.4264 49.761 83.1403 49.7886 82.8566C49.8138 82.5738 49.9099 82.302 50.068 82.0664C50.2261 81.8308 50.441 81.6391 50.6929 81.5091L65.38 73.8382C65.6209 73.7132 65.8885 73.6484 66.1599 73.6496H163.389C163.661 73.6484 163.928 73.7132 164.169 73.8382L178.853 81.5091C179.163 81.6651 179.418 81.9135 179.581 82.2201C179.745 82.5268 179.81 82.8767 179.767 83.2219C179.724 83.567 179.576 83.8904 179.343 84.1477C179.109 84.405 178.802 84.5836 178.463 84.6589L127.779 124.418C127.494 124.644 127.143 124.771 126.779 124.78C126.415 124.789 126.059 124.68 125.762 124.468L119.395 120.045C118.028 119.099 116.406 118.592 114.744 118.592C113.083 118.592 111.461 119.099 110.094 120.045L103.599 124.529C103.325 124.721 103.001 124.826 102.668 124.832ZM54.5756 83.3047L102.731 121.036L108.201 117.252C110.131 115.915 112.423 115.198 114.77 115.198C117.117 115.198 119.408 115.915 121.338 117.252L126.69 120.958L174.816 83.2272L162.969 77.0453H66.57L54.5756 83.3047Z" fill="#2D2B2B"/>
       <path d="M77.1794 25.9636C75.751 25.9591 74.3788 26.5213 73.3628 27.5275C72.3468 28.5337 71.7695 29.9021 71.757 31.3335V134.201H66.1431V31.3335C66.1457 30.6236 66.2882 29.9213 66.5624 29.2668C66.8367 28.6123 67.2372 28.0186 67.741 27.5196C68.2448 27.0206 68.842 26.6263 69.4983 26.3593C70.1546 26.0923 70.8571 25.9578 71.5654 25.9636H77.1794Z" fill="white"/>
       <path d="M163.372 49.9734V134.194H71.7568V31.3336C71.7693 29.9021 72.3466 28.5338 73.3626 27.5276C74.3786 26.5214 75.7508 25.9591 77.1792 25.9636H139.41L163.372 49.9734Z" fill="#F1F2F2"/>
       <path d="M163.413 135.903H66.1498C65.704 135.903 65.2765 135.726 64.9613 135.41C64.6461 135.094 64.469 134.665 64.469 134.219V31.3511C64.4708 29.4694 65.2177 27.6654 66.5457 26.3351C67.8738 25.0049 69.6743 24.2572 71.552 24.2564H139.424C139.646 24.256 139.865 24.2995 140.07 24.3845C140.275 24.4695 140.461 24.5942 140.617 24.7516L164.603 48.7882C164.76 48.9451 164.884 49.1315 164.969 49.3367C165.054 49.542 165.098 49.762 165.097 49.9842V134.205C165.099 134.428 165.057 134.649 164.973 134.855C164.889 135.061 164.765 135.248 164.608 135.406C164.452 135.564 164.266 135.689 164.06 135.775C163.855 135.86 163.635 135.904 163.413 135.903ZM67.8374 132.517H161.709V50.6849L138.715 27.642H71.542C70.5612 27.642 69.6207 28.0325 68.9272 28.7274C68.2337 29.4224 67.8441 30.3649 67.8441 31.3478L67.8374 132.517Z" fill="#2D2B2B"/>
       <path d="M143.384 29.9422L139.411 25.9636V44.6034C139.41 45.3087 139.549 46.0072 139.818 46.6589C140.087 47.3106 140.481 47.9028 140.979 48.4015C141.477 48.9002 142.068 49.2958 142.718 49.5655C143.368 49.8352 144.065 49.9738 144.769 49.9733H163.369L143.384 29.9422Z" fill="#6C7992"/>
       <g style="mix-blend-mode:soft-light">
       <path d="M148.806 49.9733H144.772C144.067 49.9765 143.368 49.8398 142.715 49.5713C142.062 49.3028 141.469 48.9077 140.969 48.4087C140.47 47.9097 140.073 47.3166 139.803 46.6636C139.532 46.0106 139.393 45.3104 139.394 44.6034V25.9636L143.367 29.9422V44.6034C143.381 46.0375 143.96 47.4079 144.98 48.4143C145.999 49.4208 147.375 49.9814 148.806 49.9733Z" fill="white"/>
       </g>
       <path d="M163.413 51.678H144.819C142.942 51.6771 141.141 50.9294 139.813 49.5992C138.485 48.2689 137.738 46.4649 137.736 44.5832V25.9468C137.732 25.6101 137.829 25.28 138.014 24.9989C138.199 24.7179 138.464 24.4989 138.775 24.3702C139.085 24.2414 139.427 24.2089 139.756 24.2768C140.085 24.3446 140.386 24.5097 140.621 24.7508L164.606 48.7875C164.847 49.0225 165.012 49.3244 165.079 49.6542C165.147 49.984 165.115 50.3265 164.986 50.6377C164.858 50.9488 164.639 51.2142 164.359 51.3996C164.078 51.585 163.749 51.682 163.413 51.678ZM141.115 30.0332V44.5832C141.115 45.566 141.505 46.5086 142.198 47.2035C142.891 47.8985 143.832 48.2889 144.813 48.2889H159.328L141.115 30.0332Z" fill="#2D2B2B"/>
       <path d="M118.807 64.3549H86.4308C85.9815 64.3549 85.5505 64.176 85.2328 63.8576C84.9151 63.5392 84.7366 63.1073 84.7366 62.657C84.7366 62.2067 84.9151 61.7748 85.2328 61.4564C85.5505 61.138 85.9815 60.9591 86.4308 60.9591H118.81C119.258 60.9591 119.688 61.1375 120.005 61.4549C120.322 61.7724 120.5 62.203 120.5 62.6519C120.5 63.1009 120.322 63.5315 120.005 63.849C119.688 64.1664 119.258 64.3448 118.81 64.3448L118.807 64.3549Z" fill="#9EB2C5"/>
       <path d="M127.873 77.0453H86.4308C85.985 77.0453 85.5575 76.8679 85.2423 76.552C84.9271 76.2361 84.75 75.8077 84.75 75.3609C84.75 74.9142 84.9271 74.4858 85.2423 74.1699C85.5575 73.854 85.985 73.6765 86.4308 73.6765H127.877C128.323 73.6765 128.75 73.854 129.065 74.1699C129.381 74.4858 129.558 74.9142 129.558 75.3609C129.558 75.8077 129.381 76.2361 129.065 76.552C128.75 76.8679 128.323 77.0453 127.877 77.0453H127.873Z" fill="#9EB2C5"/>
       <path d="M143.115 89.7324H86.4308C85.985 89.7324 85.5575 89.5549 85.2423 89.239C84.9271 88.9231 84.75 88.4947 84.75 88.0479C84.75 87.6012 84.9271 87.1728 85.2423 86.8569C85.5575 86.541 85.985 86.3635 86.4308 86.3635H143.119C143.564 86.3635 143.992 86.541 144.307 86.8569C144.622 87.1728 144.799 87.6012 144.799 88.0479C144.799 88.4947 144.622 88.9231 144.307 89.239C143.992 89.5549 143.564 89.7324 143.119 89.7324H143.115Z" fill="#9EB2C5"/>
       <path d="M143.115 102.423H86.4308C85.9815 102.423 85.5505 102.244 85.2328 101.925C84.9151 101.607 84.7366 101.175 84.7366 100.725C84.7366 100.275 84.9151 99.8427 85.2328 99.5243C85.5505 99.2059 85.9815 99.027 86.4308 99.027H143.119C143.567 99.027 143.996 99.2053 144.313 99.5228C144.63 99.8403 144.808 100.271 144.808 100.72C144.808 101.169 144.63 101.599 144.313 101.917C143.996 102.234 143.567 102.413 143.119 102.413L143.115 102.423Z" fill="#9EB2C5"/>
       <path d="M91.0463 52.7931C95.2923 52.7931 98.7344 49.3437 98.7344 45.0886C98.7344 40.8335 95.2923 37.384 91.0463 37.384C86.8003 37.384 83.3582 40.8335 83.3582 45.0886C83.3582 49.3437 86.8003 52.7931 91.0463 52.7931Z" fill="#EB4E4E"/>
       <path d="M102.664 123.145L53.863 156.833C53.1136 156.192 52.5116 155.396 52.0984 154.5C51.6853 153.604 51.4707 152.629 51.4695 151.642V83.0183L102.664 123.145Z" fill="#6C7992"/>
       <g style="mix-blend-mode:soft-light">
       <path d="M57.2684 154.485L53.863 156.823C53.1149 156.183 52.5137 155.389 52.1006 154.495C51.6874 153.6 51.4721 152.627 51.4695 151.642V83.0183L56.6397 87.0609V151.642C56.6529 152.622 56.8669 153.59 57.2684 154.485Z" fill="white"/>
       </g>
       <path d="M53.863 158.51C53.4553 158.512 53.0611 158.364 52.7537 158.096C51.8269 157.296 51.0825 156.305 50.571 155.192C50.0594 154.078 49.7926 152.867 49.7887 151.641V83.0215C49.7822 82.7011 49.867 82.3855 50.0333 82.1117C50.1995 81.8379 50.4402 81.6174 50.7271 81.4759C51.0141 81.3344 51.3354 81.2779 51.6532 81.313C51.9711 81.3481 52.2724 81.4733 52.5217 81.674L103.71 121.804C103.917 121.97 104.084 122.182 104.196 122.423C104.308 122.665 104.362 122.929 104.355 123.195C104.348 123.462 104.278 123.723 104.151 123.957C104.023 124.191 103.842 124.392 103.622 124.542L54.8312 158.214C54.5465 158.41 54.2085 158.514 53.863 158.51ZM53.1503 86.4948V151.641C53.148 152.702 53.481 153.737 54.1017 154.596L99.8204 123.053L53.1503 86.4948Z" fill="#2D2B2B"/>
       <path d="M178.077 83.0182V151.641C178.073 152.627 177.857 153.6 177.443 154.494C177.029 155.389 176.428 156.183 175.68 156.823L126.751 123.08L177.825 83.0182H178.077Z" fill="#6C7992"/>
       <path d="M175.68 158.511C175.338 158.512 175.004 158.408 174.722 158.214L125.793 124.475C125.573 124.326 125.391 124.126 125.263 123.893C125.134 123.659 125.063 123.399 125.055 123.132C125.047 122.866 125.102 122.601 125.215 122.361C125.329 122.12 125.498 121.909 125.709 121.746L176.782 81.6875C177.825 80.8925 179.764 81.7111 179.764 83.0351V151.641C179.759 152.868 179.491 154.079 178.977 155.193C178.464 156.307 177.718 157.297 176.789 158.096C176.482 158.365 176.088 158.512 175.68 158.511ZM129.601 122.996L175.434 154.613C176.055 153.753 176.388 152.719 176.386 151.658V86.3028L129.601 122.996Z" fill="#2D2B2B"/>
       <path d="M175.68 156.823C174.45 157.879 172.885 158.46 171.266 158.463H58.2772C56.6577 158.461 55.0923 157.88 53.8633 156.823L102.665 123.134L109.159 118.647C110.809 117.505 112.767 116.894 114.772 116.894C116.777 116.894 118.734 117.505 120.384 118.647L126.751 123.07L175.68 156.823Z" fill="#6C7992"/>
       <g style="mix-blend-mode:soft-light">
       <path d="M118.996 117.892C118.501 118.082 118.034 118.337 117.607 118.65L111.112 123.138L62.3112 156.826C63.5408 157.882 65.1058 158.464 66.725 158.467H58.2772C56.6577 158.465 55.0923 157.883 53.8633 156.826L102.665 123.138L109.159 118.65C110.587 117.668 112.249 117.08 113.976 116.947C115.703 116.814 117.434 117.14 118.996 117.892Z" fill="white"/>
       </g>
       <path d="M171.266 160.158H58.277C56.2587 160.155 54.3076 159.431 52.7739 158.116C52.5724 157.95 52.4125 157.738 52.307 157.498C52.2014 157.259 52.1531 156.998 52.1658 156.736C52.1785 156.474 52.252 156.219 52.3803 155.991C52.5086 155.763 52.6883 155.568 52.905 155.421L108.201 117.262C110.132 115.925 112.423 115.208 114.77 115.208C117.117 115.208 119.408 115.925 121.339 117.262L127.726 121.693L176.648 155.425C176.863 155.572 177.041 155.768 177.167 155.996C177.294 156.224 177.366 156.478 177.378 156.739C177.39 156.999 177.342 157.258 177.238 157.497C177.135 157.736 176.978 157.948 176.779 158.116C175.243 159.433 173.288 160.157 171.266 160.158ZM57.1105 156.634C57.4926 156.726 57.8841 156.772 58.277 156.772H171.266C171.659 156.772 172.05 156.726 172.433 156.634L119.419 120.045C118.052 119.099 116.43 118.592 114.768 118.592C113.107 118.592 111.485 119.099 110.117 120.045L57.1105 156.634Z" fill="#2D2B2B"/>
       <path d="M61.5311 160.158H16.9251C16.4771 160.158 16.0474 159.98 15.7306 159.662C15.4138 159.345 15.2358 158.914 15.2358 158.465C15.2358 158.016 15.4138 157.586 15.7306 157.268C16.0474 156.951 16.4771 156.772 16.9251 156.772H61.5311C61.9791 156.772 62.4087 156.951 62.7255 157.268C63.0423 157.586 63.2203 158.016 63.2203 158.465C63.2203 158.914 63.0423 159.345 62.7255 159.662C62.4087 159.98 61.9791 160.158 61.5311 160.158Z" fill="#2D2B2B"/>
       <path d="M199.507 160.158H158.892C158.444 160.158 158.014 159.98 157.697 159.662C157.38 159.345 157.202 158.914 157.202 158.465C157.202 158.016 157.38 157.586 157.697 157.268C158.014 156.951 158.444 156.772 158.892 156.772H199.507C199.955 156.772 200.385 156.951 200.702 157.268C201.019 157.586 201.197 158.016 201.197 158.465C201.197 158.914 201.019 159.345 200.702 159.662C200.385 159.98 199.955 160.158 199.507 160.158Z" fill="#2D2B2B"/>
       <path d="M215.469 160.158H206.533C206.085 160.158 205.656 159.98 205.339 159.662C205.022 159.345 204.844 158.914 204.844 158.465C204.844 158.016 205.022 157.586 205.339 157.268C205.656 156.951 206.085 156.772 206.533 156.772H215.469C215.917 156.772 216.346 156.951 216.663 157.268C216.98 157.586 217.158 158.016 217.158 158.465C217.158 158.914 216.98 159.345 216.663 159.662C216.346 159.98 215.917 160.158 215.469 160.158Z" fill="#2D2B2B"/>
       <path d="M171.542 173H41.8147C41.3667 173 40.9371 172.822 40.6203 172.504C40.3035 172.187 40.1255 171.756 40.1255 171.307C40.1255 170.858 40.3035 170.428 40.6203 170.11C40.9371 169.793 41.3667 169.614 41.8147 169.614H171.542C171.99 169.614 172.419 169.793 172.736 170.11C173.053 170.428 173.231 170.858 173.231 171.307C173.231 171.756 173.053 172.187 172.736 172.504C172.419 172.822 171.99 173 171.542 173Z" fill="#2D2B2B"/>
       <path d="M190.579 173H178.947C178.499 173 178.07 172.822 177.753 172.504C177.436 172.187 177.258 171.756 177.258 171.307C177.258 170.858 177.436 170.428 177.753 170.11C178.07 169.793 178.499 169.614 178.947 169.614H190.579C191.027 169.614 191.456 169.793 191.773 170.11C192.09 170.428 192.268 170.858 192.268 171.307C192.268 171.756 192.09 172.187 191.773 172.504C191.456 172.822 191.027 173 190.579 173Z" fill="#2D2B2B"/>
       <path d="M52.5488 61.0771C50.3272 62.1148 48.5418 63.904 47.5063 66.1303C47.3924 66.3587 47.2173 66.5509 47.0005 66.6852C46.7838 66.8195 46.534 66.8906 46.2792 66.8906C46.0244 66.8906 45.7747 66.8195 45.5579 66.6852C45.3412 66.5509 45.1661 66.3587 45.0522 66.1303C44.0167 63.904 42.2312 62.1148 40.0097 61.0771C39.7816 60.9635 39.5897 60.7884 39.4555 60.5714C39.3213 60.3545 39.2502 60.1043 39.2502 59.8491C39.2502 59.5939 39.3213 59.3437 39.4555 59.1268C39.5897 58.9098 39.7816 58.7347 40.0097 58.6212C42.2312 57.5834 44.0167 55.7942 45.0522 53.5679C45.1661 53.3395 45.3412 53.1473 45.5579 53.013C45.7747 52.8787 46.0244 52.8076 46.2792 52.8076C46.534 52.8076 46.7838 52.8787 47.0005 53.013C47.2173 53.1473 47.3924 53.3395 47.5063 53.5679C48.5418 55.7942 50.3272 57.5834 52.5488 58.6212C52.7768 58.7347 52.9688 58.9098 53.103 59.1268C53.2371 59.3437 53.3082 59.5939 53.3082 59.8491C53.3082 60.1043 53.2371 60.3545 53.103 60.5714C52.9688 60.7884 52.7768 60.9635 52.5488 61.0771Z" fill="#D0A550"/>
       <path d="M9.03857 114.524C7.53024 115.227 6.31823 116.442 5.61637 117.953C5.54064 118.112 5.42153 118.246 5.2728 118.34C5.12407 118.435 4.95181 118.484 4.77595 118.484C4.6001 118.484 4.42786 118.435 4.27913 118.34C4.1304 118.246 4.01126 118.112 3.93554 117.953C3.23787 116.444 2.03219 115.23 0.530164 114.524C0.371453 114.448 0.237433 114.328 0.143605 114.179C0.0497783 114.03 0 113.858 0 113.681C0 113.505 0.0497783 113.333 0.143605 113.184C0.237433 113.034 0.371453 112.915 0.530164 112.839C2.03849 112.136 3.2505 110.921 3.95236 109.41C4.02809 109.251 4.14721 109.116 4.29593 109.022C4.44466 108.928 4.61693 108.878 4.79278 108.878C4.96863 108.878 5.14087 108.928 5.2896 109.022C5.43833 109.116 5.55747 109.251 5.63319 109.41C6.33506 110.921 7.54705 112.136 9.05537 112.839C9.21334 112.917 9.34619 113.037 9.43854 113.187C9.5309 113.337 9.57896 113.51 9.5772 113.687C9.57545 113.863 9.52392 114.035 9.42859 114.183C9.33327 114.331 9.19805 114.449 9.03857 114.524Z" fill="#D0A550"/>
       <path d="M226.501 125.533C224.991 126.237 223.778 127.453 223.076 128.966C222.999 129.121 222.88 129.251 222.734 129.342C222.587 129.433 222.418 129.481 222.246 129.481C222.073 129.481 221.904 129.433 221.757 129.342C221.611 129.251 221.492 129.121 221.415 128.966C220.713 127.453 219.5 126.237 217.99 125.533C217.835 125.456 217.705 125.337 217.615 125.19C217.524 125.043 217.476 124.874 217.476 124.701C217.476 124.528 217.524 124.359 217.615 124.212C217.705 124.065 217.835 123.946 217.99 123.869C219.5 123.165 220.713 121.949 221.415 120.436C221.492 120.281 221.611 120.151 221.757 120.06C221.904 119.969 222.073 119.921 222.246 119.921C222.418 119.921 222.587 119.969 222.734 120.06C222.88 120.151 222.999 120.281 223.076 120.436C223.778 121.949 224.991 123.165 226.501 123.869C226.656 123.946 226.786 124.065 226.876 124.212C226.967 124.359 227.015 124.528 227.015 124.701C227.015 124.874 226.967 125.043 226.876 125.19C226.786 125.337 226.656 125.456 226.501 125.533Z" fill="#D0A550"/>
       <path d="M197.144 68.4952C195.635 69.1994 194.423 70.4152 193.722 71.928C193.646 72.0871 193.527 72.2214 193.378 72.3154C193.23 72.4094 193.057 72.4593 192.882 72.4593C192.706 72.4593 192.533 72.4094 192.385 72.3154C192.236 72.2214 192.117 72.0871 192.041 71.928C191.342 70.4164 190.132 69.2007 188.626 68.4952C188.467 68.4193 188.333 68.2999 188.239 68.1509C188.145 68.0018 188.095 67.8292 188.095 67.653C188.095 67.4767 188.145 67.3041 188.239 67.1551C188.333 67.006 188.467 66.8867 188.626 66.8108C190.135 66.1081 191.348 64.8934 192.051 63.3813C192.127 63.2222 192.246 63.0879 192.395 62.9939C192.543 62.8999 192.716 62.85 192.892 62.85C193.067 62.85 193.24 62.8999 193.388 62.9939C193.537 63.0879 193.656 63.2222 193.732 63.3813C194.434 64.8928 195.646 66.1074 197.154 66.8108C197.312 66.8876 197.446 67.0078 197.539 67.1574C197.632 67.307 197.68 67.4799 197.679 67.6562C197.678 67.8324 197.627 68.0047 197.533 68.1532C197.438 68.3017 197.303 68.4203 197.144 68.4952Z" fill="#D0A550"/>
</svg>