<svg width="24" height="24" viewBox="0 0 24 24" fill="none" xmlns="http://www.w3.org/2000/svg">
<path d="M18.5 20C18.5 20.8284 17.8284 21.5 17 21.5C16.1716 21.5 15.5 20.8284 15.5 20C15.5 19.1716 16.1716 18.5 17 18.5C17.8284 18.5 18.5 19.1716 18.5 20Z" stroke="#333333"/>
<path d="M8.5 20C8.5 20.8284 7.82843 21.5 7 21.5C6.17157 21.5 5.5 20.8284 5.5 20C5.5 19.1716 6.17157 18.5 7 18.5C7.82843 18.5 8.5 19.1716 8.5 20Z" stroke="#333333"/>
<path d="M17 16.5H8C6.99999 16.5 6 15 7.49999 13.5" stroke="#333333" stroke-linecap="round" stroke-linejoin="round"/>
<path d="M2.5 3.5C4 3.5 5 4 5.5 5.5" stroke="#333333" stroke-linecap="round" stroke-linejoin="round"/>
<path d="M5.5 5.5L7.5 13.5L19.5 12.5L21.5 5.5H5.5Z" stroke="#333333" stroke-linecap="round" stroke-linejoin="round"/>
</svg>
