<svg width="15" height="15" viewBox="0 0 15 15" fill="none" xmlns="http://www.w3.org/2000/svg">
<g clip-path="url(#clip0)">
<path d="M7.91162 11.3798L14.8304 4.44189C15.0569 4.21458 15.0565 3.84655 14.8292 3.61962C14.6019 3.39286 14.2337 3.39345 14.0069 3.62079L7.49997 10.1458L0.993049 3.62056C0.766292 3.39324 0.398294 3.39266 0.170952 3.61939C0.0569878 3.73315 4.74947e-06 3.88218 4.74295e-06 4.03121C4.73646e-06 4.17986 0.0566063 4.32831 0.16978 4.44186L7.08836 11.3798C7.19728 11.4893 7.34552 11.5508 7.49997 11.5508C7.65443 11.5508 7.80249 11.4891 7.91162 11.3798Z" fill="black"/>
</g>
<defs>
<clipPath id="clip0">
<rect width="15" height="15" fill="white" transform="translate(15) rotate(90)"/>
</clipPath>
</defs>
</svg>
