<svg width="48" height="48" viewBox="0 0 48 48" fill="none" xmlns="http://www.w3.org/2000/svg">
<rect x="0.0800781" width="47.6788" height="47.6788" rx="23.8394" fill="#F4F4F4"/>
<g clip-path="url(#clip0)">
<path d="M18.527 25.6194H21.0266V35.9097C21.0266 36.1129 21.1912 36.2775 21.3943 36.2775H25.6324C25.8356 36.2775 26.0002 36.1129 26.0002 35.9097V25.6679H28.8737C29.0605 25.6679 29.2177 25.5277 29.2391 25.3421L29.6755 21.5538C29.6875 21.4496 29.6545 21.3452 29.5847 21.267C29.5149 21.1887 29.415 21.1439 29.3102 21.1439H26.0004V18.7692C26.0004 18.0533 26.3858 17.6903 27.1462 17.6903C27.2545 17.6903 29.3102 17.6903 29.3102 17.6903C29.5134 17.6903 29.678 17.5256 29.678 17.3225V13.8451C29.678 13.6419 29.5134 13.4773 29.3102 13.4773H26.3278C26.3068 13.4763 26.2601 13.4746 26.1912 13.4746C25.6737 13.4746 23.875 13.5762 22.4541 14.8833C20.8799 16.3318 21.0987 18.0661 21.151 18.3669V21.1438H18.527C18.3238 21.1438 18.1592 21.3084 18.1592 21.5116V25.2516C18.1592 25.4547 18.3238 25.6194 18.527 25.6194Z" fill="#D0A550"/>
</g>
<defs>
<clipPath id="clip0">
<rect width="22.8029" height="22.8029" fill="white" transform="translate(12.5176 13.4746)"/>
</clipPath>
</defs>
</svg>
