<svg width="48" height="48" viewBox="0 0 48 48" fill="none" xmlns="http://www.w3.org/2000/svg">
<rect x="0.240234" width="47.6788" height="47.6788" rx="23.8394" fill="#F4F4F4"/>
<g clip-path="url(#clip0)">
<path d="M29.3919 12.438H20.8408C16.9058 12.438 13.7148 15.629 13.7148 19.5639V28.115C13.7148 32.0499 16.9058 35.2409 20.8408 35.2409H29.3919C33.3268 35.2409 36.5178 32.0499 36.5178 28.115V19.5639C36.5178 15.629 33.3268 12.438 29.3919 12.438ZM34.38 28.115C34.38 30.8656 32.1425 33.1031 29.3919 33.1031H20.8408C18.0902 33.1031 15.8526 30.8656 15.8526 28.115V19.5639C15.8526 16.8133 18.0902 14.5758 20.8408 14.5758H29.3919C32.1425 14.5758 34.38 16.8133 34.38 19.5639V28.115Z" fill="#D0A550"/>
<path d="M25.1167 18.1387C21.9685 18.1387 19.416 20.6912 19.416 23.8394C19.416 26.9876 21.9685 29.5401 25.1167 29.5401C28.265 29.5401 30.8175 26.9876 30.8175 23.8394C30.8175 20.6912 28.265 18.1387 25.1167 18.1387ZM25.1167 27.4024C23.1528 27.4024 21.5538 25.8033 21.5538 23.8394C21.5538 21.8741 23.1528 20.2764 25.1167 20.2764C27.0806 20.2764 28.6797 21.8741 28.6797 23.8394C28.6797 25.8033 27.0806 27.4024 25.1167 27.4024Z" fill="#D0A550"/>
<path d="M31.245 18.4709C31.6645 18.4709 32.0046 18.1308 32.0046 17.7113C32.0046 17.2918 31.6645 16.9517 31.245 16.9517C30.8254 16.9517 30.4854 17.2918 30.4854 17.7113C30.4854 18.1308 30.8254 18.4709 31.245 18.4709Z" fill="#D0A550"/>
</g>
<defs>
<clipPath id="clip0">
<rect width="22.8029" height="22.8029" fill="white" transform="translate(13.7148 12.438)"/>
</clipPath>
</defs>
</svg>
