<svg width="48" height="48" viewBox="0 0 48 48" fill="none" xmlns="http://www.w3.org/2000/svg">
<rect x="0.160156" width="47.6788" height="47.6788" rx="23.8394" fill="#F4F4F4"/>
<g clip-path="url(#clip0)">
<path d="M16.4546 24.7526C15.8193 26.0015 16.5407 26.5986 18.1866 27.6185C19.5859 28.4829 21.5189 28.799 22.7607 28.9255L21.72 29.9268C20.2451 31.3312 18.8458 32.6911 17.8674 33.6333C16.4432 34.9983 18.736 37.1884 20.1591 35.8524L24.0117 32.1366C25.4867 33.5555 26.9004 34.9154 27.8644 35.8576C29.2885 37.1988 31.5802 35.0273 30.1716 33.6384L26.319 29.9319L25.2638 28.9307C26.5211 28.8042 28.4251 28.4694 29.8078 27.6237L29.8068 27.6226C31.4527 26.5975 32.1741 26.0015 31.5481 24.7526C31.1698 24.0436 30.1499 23.4507 28.792 24.4758C28.792 24.4758 26.9585 25.8803 24.0014 25.8803C21.0432 25.8803 19.2107 24.4758 19.2107 24.4758C17.8529 23.4455 16.8288 24.0436 16.4546 24.7526Z" fill="#D0A550"/>
<path d="M23.9979 23.9865C27.6028 23.9865 30.5464 21.1693 30.5464 17.7012C30.5464 14.2186 27.6028 11.4014 23.9979 11.4014C20.3919 11.4014 17.4482 14.2186 17.4482 17.7012C17.4482 21.1693 20.3919 23.9865 23.9979 23.9865ZM23.9979 14.5927C25.7692 14.5927 27.2141 15.9827 27.2141 17.7012C27.2141 19.4052 25.7692 20.7951 23.9979 20.7951C22.2265 20.7951 20.7816 19.4052 20.7816 17.7012C20.7806 15.9816 22.2255 14.5927 23.9979 14.5927Z" fill="#D0A550"/>
</g>
<defs>
<clipPath id="clip0">
<rect width="24.8759" height="24.8759" fill="white" transform="translate(11.5615 11.4014)"/>
</clipPath>
</defs>
</svg>
