<svg width="495" height="34" viewBox="0 0 495 34" fill="none" xmlns="http://www.w3.org/2000/svg">
<g clip-path="url(#clip0)">
<path d="M22.307 10.4043H12.8115V27.4942H22.307V10.4043Z" fill="#AF883B"/>
<path d="M13.4143 18.949C13.4143 15.4767 15.0421 12.3969 17.5441 10.4041C15.7052 8.95474 13.3841 8.0791 10.852 8.0791C4.85325 8.0791 0 12.9404 0 18.949C0 24.9577 4.85325 29.819 10.852 29.819C13.3841 29.819 15.7052 28.9433 17.5441 27.494C15.0421 25.5314 13.4143 22.4214 13.4143 18.949Z" fill="#D0A550"/>
<path d="M35.1182 18.949C35.1182 24.9577 30.265 29.819 24.2663 29.819C21.7341 29.819 19.413 28.9433 17.5742 27.494C20.1063 25.5012 21.704 22.4214 21.704 18.949C21.704 15.4767 20.0762 12.3969 17.5742 10.4041C19.413 8.95474 21.7341 8.0791 24.2663 8.0791C30.265 8.0791 35.1182 12.9706 35.1182 18.949Z" fill="#D0A550"/>
</g>
<g clip-path="url(#clip1)">
<path d="M73.0601 16.5194C73.0358 18.3756 74.7696 19.4114 76.0757 20.0273C77.4177 20.6592 77.8684 21.0644 77.8633 21.6294C77.8531 22.4942 76.7928 22.8759 75.8004 22.8907C74.0692 22.9168 73.0627 22.4385 72.2624 22.0767L71.6387 24.9005C72.4416 25.2586 73.9283 25.5708 75.47 25.5845C79.0888 25.5845 81.4564 23.856 81.4692 21.1759C81.4833 17.7746 76.6071 17.5863 76.6404 16.0659C76.6519 15.605 77.1065 15.1131 78.1028 14.988C78.5958 14.9248 79.9569 14.8764 81.5 15.5641L82.1056 12.832C81.2759 12.5396 80.2092 12.2595 78.8813 12.2595C75.4752 12.2595 73.0793 14.0116 73.0601 16.5194ZM87.9256 12.495C87.2648 12.495 86.7078 12.8679 86.4594 13.4404L81.29 25.3837H84.9061L85.6258 23.4595H90.0448L90.4623 25.3837H93.6495L90.8682 12.495H87.9256ZM88.4314 15.9767L89.475 20.8165H86.6169L88.4314 15.9767ZM68.6756 12.495L65.8252 25.3837H69.2711L72.1202 12.495H68.6756ZM63.5779 12.495L59.9912 21.2676L58.5404 13.8084C58.3701 12.9757 57.6978 12.495 56.9513 12.495H51.0878L51.0059 12.8692C52.2095 13.1219 53.5771 13.5296 54.4056 13.9657C54.9127 14.2321 55.0574 14.4651 55.2239 15.0982L57.9718 25.3837H61.6136L67.1966 12.495H63.5779Z" fill="#D0A550"/>
</g>
<g clip-path="url(#clip2)">
<path fill-rule="evenodd" clip-rule="evenodd" d="M151.341 18.6816V26.4744H155.738V21.8565H160.721C162.818 21.8411 164.6 20.522 165.272 18.6816H151.341Z" fill="#D0A550"/>
<path fill-rule="evenodd" clip-rule="evenodd" d="M150.755 12.2598C151.011 15.445 154.072 17.96 157.809 17.96C157.822 17.96 165.455 17.96 165.455 17.96C165.511 17.6679 165.541 17.3664 165.541 17.0581C165.541 14.4195 163.379 12.2793 160.704 12.2599L150.755 12.2598Z" fill="#AF883B"/>
<path fill-rule="evenodd" clip-rule="evenodd" d="M144.247 17.8842L144.251 17.8769L144.251 17.8771C144.296 17.7974 144.383 17.7435 144.482 17.7435C144.625 17.7435 144.742 17.856 144.746 17.9961L144.746 17.9961V26.4021H149.143V12.2598H144.746C144.188 12.278 143.558 12.6809 143.324 13.1754L139.825 20.5639C139.816 20.5941 139.803 20.6223 139.785 20.6476L139.784 20.6501L139.784 20.6499C139.731 20.7249 139.642 20.7741 139.543 20.7741C139.381 20.7741 139.25 20.6448 139.25 20.4854V12.2598H134.853V26.4021H139.25V26.4005C139.801 26.3722 140.416 25.9738 140.647 25.4865L144.238 17.9033C144.241 17.8968 144.244 17.8904 144.247 17.8842Z" fill="#D0A550"/>
<path fill-rule="evenodd" clip-rule="evenodd" d="M127.828 18.126L125.258 26.4021H122.095L119.524 18.1209C119.499 17.9883 119.381 17.8879 119.239 17.8879C119.079 17.8879 118.95 18.0155 118.95 18.1729C118.95 18.1741 118.95 18.1753 118.95 18.1765L118.95 26.4021H114.553V12.2598H118.327H119.451C120.26 12.2598 121.108 12.878 121.344 13.6394L123.484 20.5309C123.591 20.8738 123.763 20.8735 123.87 20.5309L126.01 13.6394C126.246 12.8774 127.094 12.2598 127.903 12.2598L129.026 12.2598H132.8V26.4021H128.403V18.1765C128.403 18.1753 128.403 18.1741 128.403 18.1729C128.403 18.0155 128.274 17.8879 128.114 17.8879C127.97 17.8879 127.851 17.9909 127.828 18.126Z" fill="#D0A550"/>
</g>
<path d="M265.518 8.63525C267.125 8.63525 268.655 9.00384 270.027 9.66318C270.242 9.76037 270.459 9.87668 270.674 9.9931L269.733 10.8274L268.322 9.37254L265.891 11.506L264.459 9.97347L259.989 13.95L262.851 17.073L261.734 18.0426L264.557 21.1655L263.44 22.1348L267.479 26.5768L269.87 24.4042L271.949 26.7325C271.537 27.0429 271.086 27.3538 270.596 27.6249C269.106 28.4589 267.38 28.9429 265.538 28.9429C259.871 28.9429 255.265 24.3856 255.265 18.7804C255.245 13.213 259.852 8.63525 265.518 8.63525ZM263.635 18.1592L266.086 15.9866L268.282 18.4112L265.831 20.5835L263.635 18.1592ZM265.381 22.3491L267.812 20.1573L270.027 22.5816L267.576 24.7543L265.381 22.3491ZM261.892 14.0279L264.342 11.8553L266.537 14.2798L264.087 16.4523L261.892 14.0279ZM266.38 12.8637L268.204 11.2344L269.851 13.0384L268.028 14.6869L266.38 12.8637ZM269.635 20.3315L271.458 18.7021L273.105 20.5249L271.282 22.1553L269.635 20.3315ZM271.243 23.9979L273.066 22.3682L274.712 24.1721L272.889 25.8204L271.243 23.9979ZM271.988 15.618L273.203 14.5317L274.301 15.7348L273.085 16.8207L271.988 15.618ZM270.419 12.0296L271.635 10.9242L272.733 12.146L271.517 13.2323L270.419 12.0296ZM273.536 19.2068L274.752 18.1205L275.869 19.3232L274.634 20.4091L273.536 19.2068ZM268.067 16.5105L269.89 14.8812L271.537 16.6848L269.714 18.3144L268.067 16.5105Z" fill="#D0A550"/>
<mask id="mask0" mask-type="alpha" maskUnits="userSpaceOnUse" x="187" y="12" width="12" height="11">
<path d="M187.356 12.8545V22.2301H198.072V12.8545H187.356Z" fill="white"/>
</mask>
<g mask="url(#mask0)">
<path d="M192.734 15.6307H192.642L190.906 22.2301H189.487L187.356 12.8545H188.829L190.301 19.8503H190.393L192.102 12.8545H193.273L195.1 19.8503H195.192L196.534 12.8545H198.072L195.942 22.2301H194.521L192.734 15.6307Z" fill="#D0A550"/>
</g>
<path d="M199.94 18.2387H202.95C202.885 16.8506 202.214 16.2957 201.504 16.2957C200.703 16.2957 200.084 16.9171 199.94 18.2387ZM204.002 20.7255V21.7306C203.411 22.0744 202.622 22.339 201.675 22.339C199.467 22.339 198.56 20.9637 198.56 18.8747C198.56 16.8638 199.572 15.4092 201.544 15.4092C203.187 15.4092 204.2 16.481 204.2 18.636V19.1253H199.914C199.914 20.7117 200.558 21.4127 201.912 21.4127C202.622 21.4127 203.28 21.161 204.002 20.7255Z" fill="#D0A550"/>
<path d="M207.258 21.2788C207.679 21.4639 208.14 21.4913 208.469 21.4913C209.442 21.4913 210.177 20.8821 210.177 18.7404C210.177 17.061 209.572 16.5188 208.692 16.5188C208.166 16.5188 207.785 16.6647 207.258 16.9551V21.2788H207.258ZM207.272 15.9768C207.666 15.7659 208.336 15.4873 209.046 15.4873C210.677 15.4873 211.558 16.6244 211.558 18.7404C211.558 21.2134 210.374 22.4168 208.469 22.4168C207.772 22.4168 206.694 22.1919 205.904 21.7678V12.5386L207.272 12.2085V15.9768H207.272Z" fill="#D0A550"/>
<path d="M217.475 20.2407H217.541L220.354 12.8486H221.986V22.2249H220.566V15.4275H220.447L217.765 22.2249H216.924L214.241 15.5864H214.123V22.2249H212.939V12.8486H214.531L217.475 20.2407Z" fill="#D0A550"/>
<path d="M227.786 18.8742C227.786 17.0892 227.063 16.3358 226.169 16.3358C225.302 16.3358 224.552 17.0892 224.552 18.8742C224.552 20.6861 225.236 21.4127 226.169 21.4127C227.102 21.4127 227.786 20.6861 227.786 18.8742ZM223.172 18.8742C223.172 16.5593 224.434 15.4092 226.169 15.4092C227.905 15.4092 229.167 16.5593 229.167 18.8742C229.167 21.1351 227.971 22.339 226.169 22.339C224.368 22.339 223.172 21.1351 223.172 18.8742Z" fill="#D0A550"/>
<path d="M230.208 16.3885C230.8 16.0308 232.049 15.4092 233.561 15.4092C235.138 15.4092 235.729 16.0308 235.729 17.3925V22.1802H234.363V17.6971C234.363 16.6526 233.851 16.4675 233.179 16.4675C232.654 16.4675 231.983 16.7059 231.575 16.9439V22.1802H230.208V16.3885H230.208Z" fill="#D0A550"/>
<path d="M238.622 18.2387H241.633C241.568 16.8506 240.897 16.2957 240.187 16.2957C239.385 16.2957 238.768 16.9171 238.622 18.2387ZM242.684 20.7255V21.7306C242.093 22.0744 241.304 22.339 240.357 22.339C238.15 22.339 237.242 20.9637 237.242 18.8747C237.242 16.8638 238.254 15.4092 240.226 15.4092C241.87 15.4092 242.883 16.481 242.883 18.636V19.1253H238.597C238.597 20.7117 239.241 21.4127 240.595 21.4127C241.304 21.4127 241.963 21.161 242.684 20.7255Z" fill="#D0A550"/>
<path d="M248.345 15.4092H249.752L247.372 22.0202C246.714 23.8452 245.913 24.7974 244.401 24.7974V23.7138C245.296 23.7138 245.847 22.9994 246.163 22.0202L243.639 15.4092H245.085L246.768 20.2754H246.847L248.345 15.4092Z" fill="#D0A550"/>
<path d="M201.558 28.3247V27.7537C202.045 28.0014 202.509 28.1258 202.949 28.1258C203.315 28.1258 203.595 28.0586 203.791 27.923C203.987 27.7882 204.085 27.6061 204.085 27.3757C204.085 27.1455 204.005 26.9728 203.844 26.8579C203.683 26.7432 203.382 26.6011 202.942 26.4328C202.79 26.3754 202.692 26.338 202.648 26.3202C202.605 26.3029 202.52 26.267 202.393 26.2142C202.267 26.1614 202.184 26.1212 202.145 26.0948C202.106 26.0675 202.04 26.0276 201.946 25.9752C201.853 25.9215 201.789 25.8743 201.757 25.833C201.724 25.7905 201.679 25.7368 201.623 25.6728C201.566 25.6089 201.528 25.5455 201.508 25.4808C201.489 25.4168 201.47 25.3426 201.453 25.2584C201.436 25.174 201.427 25.0835 201.427 24.9861C201.427 24.6099 201.565 24.3076 201.841 24.0771C202.118 23.8475 202.5 23.7324 202.988 23.7324C203.419 23.7324 203.848 23.8119 204.275 23.9713V24.5748C203.861 24.371 203.447 24.2701 203.034 24.2701C202.742 24.2701 202.524 24.331 202.38 24.4548C202.237 24.5786 202.165 24.7423 202.165 24.9461C202.165 25.1631 202.237 25.3275 202.38 25.4406C202.524 25.5541 202.781 25.6791 203.151 25.8159C203.787 26.0504 204.225 26.2627 204.464 26.4532C204.704 26.6429 204.823 26.9269 204.823 27.3024C204.823 27.6966 204.659 28.0188 204.33 28.2687C204.001 28.5187 203.55 28.6437 202.975 28.6437C202.448 28.6437 201.976 28.537 201.558 28.3247ZM208.204 28.5432H207.583L207.537 28.1583C207.162 28.4684 206.788 28.6235 206.414 28.6235C206.1 28.6235 205.858 28.5385 205.686 28.3677C205.513 28.1974 205.427 27.9823 205.427 27.7206C205.427 27.5832 205.452 27.452 205.503 27.3258C205.553 27.1995 205.635 27.0771 205.751 26.9577C205.866 26.8381 206.04 26.7421 206.273 26.6688C206.506 26.5953 206.786 26.5591 207.113 26.5591H207.518V26.3799C207.518 26.0835 207.463 25.8817 207.354 25.7728C207.245 25.6643 207.063 25.6101 206.806 25.6101C206.492 25.6101 206.107 25.74 205.65 26.0018V25.4709C206.12 25.2542 206.581 25.145 207.034 25.145C207.474 25.145 207.779 25.2362 207.949 25.418C208.119 25.599 208.204 25.8737 208.204 26.2401V28.5432ZM207.524 27.0235H207.178C206.464 27.0235 206.107 27.2383 206.107 27.6676C206.107 27.8186 206.154 27.9269 206.25 27.9959C206.346 28.0647 206.466 28.0986 206.61 28.0986C206.792 28.0986 206.969 28.0543 207.139 27.9656C207.309 27.8777 207.437 27.776 207.524 27.6608V27.0235H207.524ZM209.265 29.8711V25.6305C209.457 25.484 209.683 25.3663 209.944 25.278C210.206 25.1902 210.462 25.1449 210.715 25.1449C211.62 25.1449 212.074 25.7006 212.074 26.8116C212.074 27.3867 211.956 27.827 211.721 28.1317C211.486 28.4374 211.148 28.5894 210.708 28.5894C210.403 28.5894 210.149 28.5119 209.944 28.358V29.8711H209.265ZM209.938 25.8553V27.8671C210.025 27.9508 210.135 28.0131 210.267 28.0554C210.4 28.0974 210.517 28.1184 210.617 28.1184C210.856 28.1184 211.045 28.0249 211.182 27.8369C211.319 27.6485 211.387 27.3068 211.387 26.8116C211.387 26.4089 211.317 26.1139 211.176 25.9291C211.034 25.7426 210.85 25.6501 210.623 25.6501C210.367 25.6501 210.138 25.7183 209.938 25.8553ZM213.631 25.1791V28.5432H212.952V25.3447L213.631 25.1791ZM212.848 24.2029C212.848 24.0835 212.892 23.9788 212.981 23.8875C213.071 23.7969 213.174 23.7514 213.291 23.7514C213.409 23.7514 213.513 23.7969 213.602 23.8875C213.691 23.9788 213.736 24.0835 213.736 24.2029C213.736 24.3224 213.691 24.4278 213.602 24.5189C213.513 24.6087 213.409 24.6542 213.291 24.6542C213.174 24.6542 213.071 24.6087 212.981 24.5189C212.892 24.4278 212.848 24.3224 212.848 24.2029ZM216.175 28.1583C216.489 28.1583 216.835 28.0432 217.214 27.8136V28.3179C216.866 28.5218 216.48 28.6235 216.058 28.6235C215.527 28.6235 215.136 28.4707 214.886 28.1653C214.635 27.8597 214.51 27.433 214.51 26.8844C214.51 26.362 214.639 25.9412 214.895 25.6237C215.152 25.3052 215.518 25.1449 215.992 25.1449C216.411 25.1449 216.735 25.2825 216.966 25.5571C217.197 25.8319 217.312 26.2339 217.312 26.7647V27.0107H215.183C215.183 27.4046 215.263 27.6948 215.424 27.8795C215.585 28.0661 215.836 28.1583 216.175 28.1583ZM215.973 25.5904C215.768 25.5904 215.596 25.6724 215.457 25.8354C215.318 25.9994 215.23 26.2432 215.196 26.5652H216.691C216.674 26.2382 216.598 25.9944 216.463 25.833C216.328 25.671 216.165 25.5904 215.973 25.5904ZM218.177 28.5432V25.6367C218.713 25.309 219.268 25.1449 219.843 25.1449C220.231 25.1449 220.507 25.2252 220.672 25.3846C220.838 25.544 220.921 25.796 220.921 26.1408V28.5432H220.241V26.2936C220.241 26.0504 220.191 25.8865 220.091 25.8029C219.991 25.7183 219.845 25.6766 219.654 25.6766C219.392 25.6766 219.127 25.7565 218.857 25.9157V28.5432H218.177V28.5432ZM222.629 25.3052H223.661L223.497 25.7565H222.629V27.5082C222.629 27.9508 222.816 28.1719 223.19 28.1719C223.334 28.1719 223.48 28.1412 223.628 28.0791V28.5035C223.424 28.5833 223.18 28.6235 222.897 28.6235C222.57 28.6235 222.331 28.5292 222.178 28.3406C222.026 28.1534 221.949 27.9065 221.949 27.6004V24.8667L222.629 24.3684V25.3052H222.629ZM224.99 25.1791V28.5432H224.311V25.3447L224.99 25.1791ZM224.206 24.2029C224.206 24.0835 224.251 23.9788 224.34 23.8875C224.429 23.7969 224.533 23.7514 224.65 23.7514C224.768 23.7514 224.872 23.7969 224.96 23.8875C225.05 23.9788 225.095 24.0835 225.095 24.2029C225.095 24.3224 225.05 24.4278 224.96 24.5189C224.872 24.6087 224.768 24.6542 224.65 24.6542C224.533 24.6542 224.429 24.6087 224.34 24.5189C224.251 24.4278 224.206 24.3224 224.206 24.2029ZM229.615 25.411V25.9412C229.288 25.7203 228.957 25.6101 228.622 25.6101C228.452 25.6101 228.313 25.6433 228.204 25.7098C228.095 25.7757 228.04 25.8823 228.04 26.0276C228.04 26.1655 228.1 26.2747 228.22 26.3565C228.34 26.4386 228.528 26.5215 228.785 26.605C228.929 26.6538 229.036 26.6916 229.108 26.718C229.18 26.7452 229.275 26.7895 229.392 26.8511C229.51 26.9133 229.598 26.9746 229.657 27.0371C229.716 27.0992 229.769 27.1806 229.817 27.2827C229.865 27.3844 229.889 27.4969 229.889 27.6209C229.889 27.9264 229.768 28.1696 229.527 28.3511C229.285 28.5325 228.961 28.6235 228.557 28.6235C228.104 28.6235 227.727 28.5261 227.426 28.3309V27.8136C227.809 28.0432 228.16 28.1584 228.478 28.1584C228.957 28.1584 229.197 27.9995 229.197 27.6806C229.197 27.619 229.182 27.5609 229.154 27.5082C229.126 27.4551 229.093 27.412 229.056 27.3787C229.019 27.3455 228.959 27.3081 228.876 27.2654C228.793 27.2242 228.724 27.1934 228.667 27.1731C228.611 27.1534 228.522 27.1213 228.4 27.0771C228.221 27.0107 228.08 26.9534 227.975 26.9044C227.87 26.8554 227.766 26.7925 227.662 26.7154C227.557 26.638 227.48 26.5455 227.433 26.4397C227.385 26.3338 227.361 26.2073 227.361 26.0615C227.361 25.8756 227.405 25.7168 227.492 25.5844C227.579 25.4507 227.692 25.3556 227.831 25.2983C227.971 25.2406 228.098 25.2006 228.213 25.1791C228.329 25.1562 228.443 25.145 228.557 25.145C228.927 25.1449 229.279 25.2337 229.615 25.411ZM233.223 28.5432H232.603L232.557 28.1583C232.182 28.4684 231.808 28.6235 231.434 28.6235C231.12 28.6235 230.877 28.5385 230.705 28.3677C230.533 28.1974 230.447 27.9823 230.447 27.7206C230.447 27.5832 230.472 27.452 230.523 27.3258C230.573 27.1995 230.655 27.0771 230.771 26.9577C230.886 26.8381 231.06 26.7421 231.293 26.6688C231.526 26.5953 231.806 26.5591 232.132 26.5591H232.538V26.3799C232.538 26.0835 232.483 25.8817 232.375 25.7728C232.265 25.6643 232.082 25.6101 231.826 25.6101C231.512 25.6101 231.127 25.74 230.669 26.0018V25.4709C231.14 25.2542 231.601 25.145 232.054 25.145C232.494 25.145 232.798 25.2362 232.968 25.418C233.138 25.599 233.223 25.8737 233.223 26.2401V28.5432H233.223ZM232.544 27.0235H232.198C231.484 27.0235 231.127 27.2383 231.127 27.6676C231.127 27.8186 231.175 27.9269 231.27 27.9959C231.366 28.0647 231.486 28.0986 231.63 28.0986C231.812 28.0986 231.988 28.0543 232.159 27.9656C232.328 27.8777 232.457 27.776 232.544 27.6608V27.0235H232.544ZM234.932 25.3052H235.964L235.8 25.7565H234.932V27.5082C234.932 27.9508 235.119 28.1719 235.493 28.1719C235.637 28.1719 235.782 28.1412 235.931 28.0791V28.5035C235.726 28.5833 235.482 28.6235 235.199 28.6235C234.873 28.6235 234.633 28.5292 234.481 28.3406C234.328 28.1534 234.252 27.9065 234.252 27.6004V24.8667L234.932 24.3684V25.3052H234.932Z" fill="#D0A550"/>
<path d="M300.171 19.913L297.659 25.5609H295.824L298.584 19.5219C297.937 19.191 297.419 18.7097 297.02 18.0704C296.621 17.4312 296.426 16.5663 296.426 15.4608C296.426 14.6937 296.539 14.0168 296.764 13.4302C296.99 12.8436 297.298 12.3623 297.689 11.9788C298.08 11.5952 298.539 11.3019 299.058 11.1139C299.577 10.9184 300.134 10.8281 300.705 10.8281H303.074V25.5684H301.487V19.9205H300.171V19.913ZM301.487 12.1442H300.645C300.329 12.1442 300.021 12.2044 299.72 12.3172C299.419 12.4375 299.148 12.618 298.915 12.8737C298.682 13.1294 298.494 13.4678 298.351 13.889C298.208 14.3101 298.133 14.8291 298.133 15.4533C298.133 16.0474 298.201 16.5438 298.329 16.9423C298.456 17.3409 298.637 17.6643 298.863 17.9125C299.088 18.1607 299.359 18.3336 299.667 18.4389C299.976 18.5442 300.299 18.5969 300.645 18.5969H301.487V12.1442Z" fill="#AF883B"/>
<path d="M310.723 15.1748V25.5607H309.136V20.9055H306.744V25.5607H305.135V15.1748H306.744V19.5894H309.136V15.1748H310.723ZM318.988 27.5988H317.544V25.5607H313.092V27.5988H311.648V24.2371H312.287C312.52 23.6881 312.708 23.0789 312.843 22.4096C312.979 21.7403 313.084 21.0559 313.159 20.349C313.234 19.642 313.28 18.9201 313.302 18.1831C313.325 17.446 313.332 16.7391 313.332 16.0472V15.1748H318.153V24.2446H318.98V27.5988H318.988ZM316.574 16.4909H314.784V16.6789C314.784 17.2279 314.776 17.8296 314.754 18.4764C314.731 19.1306 314.686 19.7925 314.618 20.4618C314.551 21.1311 314.453 21.7929 314.332 22.4472C314.212 23.1015 314.039 23.6956 313.813 24.2446H316.574V16.4909ZM325.974 24.8613C325.643 25.1245 325.267 25.3276 324.839 25.478C324.41 25.6284 323.936 25.7036 323.417 25.7036C322.342 25.7036 321.5 25.29 320.883 24.4552C320.266 23.6204 319.958 22.4021 319.958 20.8002C319.958 19.9654 320.018 19.1908 320.131 18.4914C320.251 17.792 320.432 17.1828 320.687 16.6639C320.943 16.145 321.266 15.7464 321.665 15.4606C322.064 15.1748 322.537 15.0244 323.086 15.0244C323.515 15.0244 323.906 15.1071 324.26 15.2801C324.613 15.4531 324.921 15.7313 325.17 16.1149C325.418 16.4984 325.606 16.9948 325.749 17.6115C325.884 18.2207 325.952 18.9652 325.952 19.8451V20.7325H321.62C321.62 21.9133 321.778 22.8082 322.101 23.4098C322.425 24.0115 322.906 24.3198 323.553 24.3198C324.004 24.3198 324.41 24.2446 324.756 24.0792C325.109 23.9212 325.388 23.7633 325.591 23.6129L325.974 24.8613ZM323.086 16.348C322.59 16.348 322.244 16.6263 322.033 17.1828C321.823 17.7393 321.695 18.4839 321.642 19.4164H324.305C324.305 18.9802 324.282 18.5666 324.245 18.1906C324.207 17.8145 324.139 17.4836 324.049 17.2129C323.959 16.9346 323.838 16.7241 323.68 16.5737C323.523 16.4232 323.319 16.348 323.086 16.348ZM329.208 20.3866V25.5607H327.599V15.1748H329.208V19.9805L331.705 15.1748H333.337L330.757 20.0632L333.705 25.5682H331.953L329.208 20.3866ZM337.473 25.7036C336.36 25.7036 335.488 25.2599 334.856 24.3725C334.224 23.4851 333.908 22.1464 333.908 20.364C333.908 19.5518 333.984 18.8148 334.149 18.1605C334.307 17.4987 334.54 16.9422 334.849 16.4834C335.157 16.0246 335.54 15.6637 335.999 15.408C336.458 15.1523 336.992 15.0244 337.594 15.0244C338.06 15.0244 338.436 15.0771 338.729 15.1823C339.015 15.2876 339.278 15.4155 339.511 15.5659L339.286 17.0926C339.068 16.897 338.804 16.7241 338.511 16.5737C338.218 16.4232 337.902 16.348 337.571 16.348C336.992 16.348 336.518 16.6714 336.15 17.3257C335.781 17.9725 335.593 18.9652 335.593 20.2888C335.593 21.5974 335.751 22.6127 336.059 23.3271C336.368 24.0416 336.857 24.395 337.511 24.395C337.909 24.395 338.255 24.3274 338.541 24.192C338.827 24.0566 339.068 23.9062 339.263 23.7332L339.632 24.929C339.353 25.1621 339.045 25.3502 338.707 25.493C338.368 25.6359 337.955 25.7036 337.473 25.7036Z" fill="#D0A550"/>
<path fill-rule="evenodd" clip-rule="evenodd" d="M347.481 13.4767C347.481 12.0305 347.602 11.1126 350.597 8.87681C353.077 7.02574 361.025 0.700195 361.025 0.700195V11.2595H367.07V26.4571H349.369C348.33 26.4571 347.48 25.6072 347.48 24.5688L347.481 13.4768V13.4767Z" fill="#D0A550"/>
<path fill-rule="evenodd" clip-rule="evenodd" d="M361.025 11.2593V17.3777L349.918 24.9445L363.961 20.3753V11.2593H361.025Z" fill="#AF883B"/>
<path fill-rule="evenodd" clip-rule="evenodd" d="M355.95 10.9429C356.6 10.1689 357.548 9.89574 358.069 10.3328C358.59 10.7699 358.486 11.7517 357.836 12.5257C357.187 13.2995 356.238 13.5724 355.717 13.1353C355.196 12.6983 355.301 11.7166 355.95 10.9428V10.9429Z" fill="white"/>
<path d="M408.797 18.0435V23.3232H407.171V10.2846H411.483C411.998 10.2735 412.51 10.3675 412.989 10.5613C413.468 10.755 413.905 11.0446 414.275 11.4133C414.649 11.7597 414.947 12.1845 415.148 12.6591C415.349 13.1337 415.449 13.6472 415.442 14.165C415.453 14.6857 415.354 15.2025 415.153 15.6802C414.951 16.1578 414.652 16.585 414.275 16.9324C413.521 17.6731 412.591 18.0431 411.483 18.0424H408.797V18.0435ZM408.797 11.8898V16.4413H411.524C411.822 16.4504 412.12 16.3952 412.397 16.2791C412.674 16.163 412.924 15.9887 413.132 15.7672C413.339 15.5601 413.503 15.3124 413.616 15.0387C413.728 14.7651 413.786 14.471 413.786 14.1739C413.786 13.8768 413.728 13.5827 413.616 13.3091C413.503 13.0354 413.339 12.7877 413.132 12.5806C412.927 12.3544 412.677 12.1758 412.4 12.0565C412.123 11.9373 411.824 11.8801 411.524 11.8888H408.797V11.8898Z" fill="#D0A550"/>
<path d="M419.189 14.1113C420.39 14.1113 421.339 14.4422 422.035 15.1038C422.73 15.7655 423.077 16.6727 423.077 17.8254V23.3236H421.522V22.0856H421.451C420.778 23.1051 419.882 23.6149 418.765 23.6149C417.811 23.6149 417.012 23.3236 416.37 22.741C416.062 22.4736 415.815 22.1387 415.649 21.7608C415.482 21.3828 415.399 20.9713 415.407 20.5563C415.407 19.6331 415.745 18.899 416.423 18.3538C417.1 17.8087 418.004 17.5354 419.135 17.5341C420.101 17.5341 420.896 17.7161 421.521 18.0802V17.6974C421.522 17.4144 421.463 17.1346 421.347 16.8782C421.231 16.6218 421.061 16.3952 420.849 16.2149C420.419 15.8153 419.859 15.5972 419.28 15.6042C418.371 15.6042 417.653 15.9989 417.124 16.7881L415.691 15.8591C416.479 14.6939 417.645 14.1113 419.189 14.1113ZM417.085 20.5927C417.084 20.8058 417.132 21.0162 417.226 21.2062C417.32 21.3962 417.457 21.5604 417.624 21.685C417.984 21.9764 418.43 22.1308 418.888 22.122C419.574 22.1208 420.232 21.8395 420.717 21.3396C421.255 20.8174 421.525 20.2046 421.525 19.5013C421.018 19.0852 420.311 18.8771 419.404 18.8771C418.743 18.8771 418.193 19.0412 417.752 19.3692C417.306 19.7021 417.085 20.1068 417.085 20.5927Z" fill="#D0A550"/>
<path d="M432.005 14.4019L426.575 27.2553H424.897L426.912 22.7579L423.342 14.4019H425.109L427.689 20.8104H427.725L430.234 14.4019H432.005Z" fill="#D0A550"/>
<path d="M402.226 16.9054C402.227 16.3949 402.185 15.8854 402.101 15.3823H395.244V18.2672H399.172C399.091 18.728 398.921 19.1672 398.672 19.5584C398.422 19.9496 398.098 20.2847 397.719 20.5435V22.4161H400.063C401.436 21.1125 402.226 19.1848 402.226 16.9054Z" fill="#AF883B"/>
<path d="M395.245 24.2249C397.207 24.2249 398.859 23.5611 400.064 22.4167L397.72 20.5441C397.067 20.9998 396.227 21.2599 395.245 21.2599C393.348 21.2599 391.738 19.9428 391.163 18.168H388.748V20.0978C389.353 21.3384 390.281 22.3813 391.428 23.1101C392.576 23.8388 393.897 24.2248 395.245 24.2249Z" fill="#D0A550"/>
<path d="M391.163 18.1681C390.858 17.2381 390.858 16.231 391.163 15.3009V13.3711H388.748C388.239 14.4147 387.974 15.5665 387.974 16.7345C387.974 17.9025 388.239 19.0543 388.748 20.098L391.163 18.1681Z" fill="#AF883B"/>
<path d="M395.245 12.2091C396.282 12.1917 397.284 12.5953 398.034 13.3327L400.109 11.1948C398.793 9.92149 397.05 9.22242 395.245 9.24414C393.897 9.24421 392.576 9.63017 391.428 10.3589C390.281 11.0877 389.353 12.1306 388.748 13.3712L391.163 15.301C391.738 13.5262 393.348 12.2091 395.245 12.2091Z" fill="#D0A550"/>
<path d="M452.479 9.99531C451.869 10.7164 450.894 11.2851 449.918 11.2038C449.796 10.2289 450.274 9.19303 450.833 8.55323C451.442 7.81187 452.509 7.28379 453.373 7.24316C453.475 8.25872 453.079 9.25396 452.479 9.99531ZM453.363 11.3968C451.951 11.3155 450.741 12.1991 450.07 12.1991C449.39 12.1991 448.363 11.4374 447.245 11.4577C445.792 11.478 444.44 12.3006 443.698 13.6107C442.174 16.2308 443.302 20.1102 444.776 22.2429C445.497 23.2991 446.361 24.4568 447.499 24.4162C448.577 24.3755 449.003 23.7154 450.304 23.7154C451.615 23.7154 451.991 24.4162 453.129 24.3959C454.308 24.3755 455.05 23.3397 455.772 22.2835C456.595 21.0852 456.93 19.9173 456.951 19.8563C456.93 19.836 454.674 18.9728 454.654 16.373C454.634 14.1997 456.432 13.1638 456.514 13.1029C455.497 11.5999 453.912 11.4374 453.363 11.3968ZM461.524 8.45167V24.2841H463.983V18.8712H467.388C470.498 18.8712 472.682 16.7386 472.682 13.6513C472.682 10.564 470.538 8.45167 467.469 8.45167H461.524ZM463.983 10.5234H466.819C468.953 10.5234 470.172 11.6608 470.172 13.6615C470.172 15.6621 468.953 16.8097 466.808 16.8097H463.983V10.5234ZM477.174 24.406C478.719 24.406 480.152 23.624 480.803 22.3851H480.853V24.2841H483.13V16.4035C483.13 14.1185 481.3 12.6459 478.485 12.6459C475.874 12.6459 473.943 14.1388 473.872 16.1902H476.087C476.27 15.2153 477.174 14.5755 478.414 14.5755C479.918 14.5755 480.762 15.2762 480.762 16.5659V17.4393L477.693 17.6221C474.837 17.7948 473.292 18.9626 473.292 20.9938C473.292 23.0452 474.888 24.406 477.174 24.406ZM477.835 22.5272C476.524 22.5272 475.691 21.8976 475.691 20.9328C475.691 19.9376 476.494 19.3587 478.028 19.2673L480.762 19.0947V19.9884C480.762 21.4711 479.502 22.5272 477.835 22.5272ZM486.168 28.5901C488.567 28.5901 489.695 27.6761 490.681 24.9036L495 12.7982H492.5L489.603 22.1515H489.553L486.656 12.7982H484.085L488.252 24.3248L488.028 25.0255C487.652 26.2137 487.042 26.6707 485.955 26.6707C485.762 26.6707 485.386 26.6504 485.233 26.6301V28.5292C485.376 28.5698 485.986 28.5901 486.168 28.5901Z" fill="#D0A550"/>
<defs>
<clipPath id="clip0">
<rect width="35.1183" height="21.7399" fill="white" transform="translate(0 8.0791)"/>
</clipPath>
<clipPath id="clip1">
<rect width="42.6436" height="13.3784" fill="white" transform="translate(51.0059 12.2598)"/>
</clipPath>
<clipPath id="clip2">
<rect width="51.0051" height="14.2145" fill="white" transform="translate(114.553 12.2598)"/>
</clipPath>
</defs>
</svg>
