<svg width="48" height="48" viewBox="0 0 48 48" fill="none" xmlns="http://www.w3.org/2000/svg">
<rect width="47.6788" height="47.6788" rx="23.8394" fill="#F4F4F4"/>
<g clip-path="url(#clip0)">
<path d="M36.0839 26.0509C36.8596 19.5216 35.7113 15.3996 33.6399 13.5351L33.641 13.5341C30.2979 10.3501 19.0074 9.8789 15.0077 13.6771C13.2115 15.535 12.5789 18.2617 12.5095 21.6374C12.4402 25.0141 12.3579 31.3397 18.2523 33.0557H18.2577L18.2523 35.6763C18.2523 35.6763 18.2122 36.738 18.8904 36.9514C19.666 37.2027 20.017 36.7098 22.4296 33.8281C26.4639 34.1781 29.5623 33.3764 29.9144 33.2594C30.729 32.9864 35.3386 32.3765 36.0839 26.0509ZM22.8272 31.9843C22.8272 31.9843 20.2738 35.1682 19.4797 35.9948C19.2197 36.2635 18.9348 36.2386 18.9391 35.7056C18.9391 35.3556 18.9586 31.3549 18.9586 31.3549C13.9612 29.9227 14.2559 24.5364 14.31 21.7186C14.3642 18.8998 14.8799 16.5912 16.4009 15.0366C19.9098 11.7466 29.8082 12.4821 32.3302 14.8525C35.4134 17.5857 34.3159 25.3077 34.3224 25.571C33.6887 30.8511 29.9534 31.1859 29.2665 31.4145C28.9729 31.512 26.2484 32.2129 22.8272 31.9843Z" fill="#D0A550"/>
<path d="M24.2396 15.6553C23.8225 15.6553 23.8225 16.3053 24.2396 16.3107C27.4755 16.3356 30.1405 18.5911 30.1697 22.7284C30.1697 23.1649 30.8089 23.1595 30.8035 22.7229H30.8024C30.7677 18.265 27.8579 15.6802 24.2396 15.6553Z" fill="#D0A550"/>
<path d="M28.4967 22.0425C28.487 22.4736 29.125 22.4942 29.1305 22.0576C29.1835 19.5995 27.668 17.5748 24.8199 17.3614C24.4028 17.331 24.3594 17.9865 24.7754 18.0168C27.2455 18.2042 28.5465 19.8899 28.4967 22.0425Z" fill="#D0A550"/>
<path d="M27.8141 24.8388C27.2789 24.5289 26.734 24.7218 26.5086 25.0262L26.0374 25.6361C25.798 25.9459 25.3506 25.9048 25.3506 25.9048C22.0854 25.0414 21.2122 21.6245 21.2122 21.6245C21.2122 21.6245 21.1722 21.1619 21.4712 20.9139L22.0605 20.4264C22.3552 20.1924 22.5415 19.629 22.2414 19.0754C21.4397 17.627 20.9013 17.1276 20.6272 16.7441C20.3391 16.3834 19.9057 16.3021 19.4551 16.5459H19.4453C18.5082 17.094 17.4823 18.1199 17.8106 19.1762C18.3707 20.2899 19.3998 23.8399 22.6802 26.5223C24.2217 27.7909 26.6614 29.0909 27.6971 29.3909L27.7068 29.4061C28.7273 29.7463 29.7196 28.6803 30.2494 27.715V27.7074C30.4845 27.2405 30.4065 26.7985 30.0631 26.5093C29.4542 25.9156 28.5356 25.2602 27.8141 24.8388Z" fill="#D0A550"/>
<path d="M25.2655 19.7796C26.3066 19.8403 26.8114 20.3842 26.8656 21.5011C26.8851 21.9377 27.5188 21.9073 27.4993 21.4707C27.43 20.0126 26.6695 19.2001 25.3002 19.1242C24.8831 19.0993 24.8441 19.7547 25.2655 19.7796Z" fill="#D0A550"/>
</g>
<defs>
<clipPath id="clip0">
<rect width="26" height="26" fill="white" transform="translate(11 11)"/>
</clipPath>
</defs>
</svg>
