<svg width="48" height="48" viewBox="0 0 48 48" fill="none" xmlns="http://www.w3.org/2000/svg">
<rect width="47.6788" height="47.6788" rx="23.8394" fill="#F4F4F4"/>
<g clip-path="url(#clip0)">
<path d="M32.6665 27.3861C33.5261 28.2253 34.4333 29.0149 35.2042 29.9387C35.5448 30.3493 35.8672 30.7729 36.1139 31.2493C36.4634 31.9266 36.1468 32.6719 35.5395 32.7123L31.7645 32.7106C30.7909 32.7913 30.0142 32.3994 29.3611 31.7337C28.8384 31.2013 28.3544 30.6347 27.8518 30.0844C27.6458 29.8595 27.4302 29.6478 27.1726 29.4805C26.6572 29.146 26.2099 29.2484 25.9154 29.7859C25.6155 30.3326 25.5474 30.9379 25.518 31.5471C25.4775 32.4361 25.2088 32.6698 24.3159 32.7105C22.4077 32.8005 20.5966 32.5118 18.9142 31.5491C17.4309 30.7005 16.2807 29.5024 15.2796 28.1461C13.3304 25.5051 11.8377 22.603 10.4961 19.6196C10.1941 18.9475 10.415 18.5867 11.1566 18.5739C12.3881 18.5499 13.6195 18.5517 14.8524 18.5722C15.353 18.5795 15.6843 18.8666 15.8776 19.3394C16.5439 20.9777 17.3591 22.5364 18.3825 23.9812C18.655 24.3658 18.9329 24.7505 19.3286 25.0212C19.7664 25.321 20.0997 25.2216 20.3056 24.734C20.4363 24.4247 20.4935 24.0917 20.523 23.7605C20.6206 22.6211 20.6334 21.4837 20.4623 20.3483C20.3572 19.6397 19.9581 19.181 19.2511 19.0469C18.8903 18.9785 18.944 18.8442 19.1187 18.6383C19.4221 18.2831 19.7075 18.062 20.2764 18.062H24.5427C25.2144 18.1946 25.3635 18.4963 25.4555 19.1721L25.4591 23.9111C25.4518 24.1727 25.5898 24.9491 26.061 25.1222C26.4382 25.2455 26.6868 24.9438 26.9131 24.7046C27.9345 23.6205 28.6636 22.3393 29.3149 21.0126C29.6039 20.4292 29.8525 19.8234 30.0933 19.218C30.2718 18.7689 30.5518 18.5479 31.0578 18.5576L35.1639 18.5613C35.2856 18.5613 35.4088 18.5631 35.5267 18.5832C36.2186 18.7012 36.4083 18.9988 36.1945 19.6745C35.8578 20.7345 35.2027 21.6179 34.5621 22.5053C33.8773 23.4528 33.145 24.3679 32.4659 25.321C31.842 26.1915 31.8916 26.6302 32.6665 27.3861Z" fill="#D0A550"/>
</g>
<defs>
<clipPath id="clip0">
<rect width="25.9124" height="25.9124" fill="white" transform="translate(10.3652 12.438)"/>
</clipPath>
</defs>
</svg>
