<svg width="48" height="48" viewBox="0 0 48 48" fill="none" xmlns="http://www.w3.org/2000/svg">
<rect width="47.6788" height="47.6788" rx="23.8394" fill="#F4F4F4"/>
<path d="M24.003 12H23.997C17.3805 12 12 17.382 12 24C12 26.625 12.846 29.058 14.2845 31.0335L12.789 35.4915L17.4015 34.017C19.299 35.274 21.5625 36 24.003 36C30.6195 36 36 30.6165 36 24C36 17.3835 30.6195 12 24.003 12Z" fill="#D0A550"/>
<path d="M30.9848 28.9458C30.6953 29.7633 29.5463 30.4413 28.6298 30.6393C28.0028 30.7728 27.1838 30.8793 24.4268 29.7363C20.9003 28.2753 18.6293 24.6918 18.4523 24.4593C18.2828 24.2268 17.0273 22.5618 17.0273 20.8398C17.0273 19.1178 17.9018 18.2793 18.2543 17.9193C18.5438 17.6238 19.0223 17.4888 19.4813 17.4888C19.6298 17.4888 19.7633 17.4963 19.8833 17.5023C20.2358 17.5173 20.4128 17.5383 20.6453 18.0948C20.9348 18.7923 21.6398 20.5143 21.7238 20.6913C21.8093 20.8683 21.8948 21.1083 21.7748 21.3408C21.6623 21.5808 21.5633 21.6873 21.3863 21.8913C21.2093 22.0953 21.0413 22.2513 20.8643 22.4703C20.7023 22.6608 20.5193 22.8648 20.7233 23.2173C20.9273 23.5623 21.6323 24.7128 22.6703 25.6368C24.0098 26.8293 25.0958 27.2103 25.4843 27.3723C25.7738 27.4923 26.1188 27.4638 26.3303 27.2388C26.5988 26.9493 26.9303 26.4693 27.2678 25.9968C27.5078 25.6578 27.8108 25.6158 28.1288 25.7358C28.4528 25.8483 30.1673 26.6958 30.5198 26.8713C30.8723 27.0483 31.1048 27.1323 31.1903 27.2808C31.2743 27.4293 31.2743 28.1268 30.9848 28.9458Z" fill="#FAFAFA"/>
</svg>
