<svg width="48" height="48" viewBox="0 0 48 48" fill="none" xmlns="http://www.w3.org/2000/svg">
<rect x="0.321289" width="47.6788" height="47.6788" rx="23.8394" fill="#F4F4F4"/>
<g clip-path="url(#clip0)">
<path d="M11.2724 30.4353C11.8226 32.3869 13.5058 32.7439 13.6181 32.8124C16.3882 33.567 31.9153 33.5692 34.727 32.8124C36.6527 32.2555 37.0064 30.5476 37.0726 30.4353C37.8059 26.5345 37.8542 21.449 37.039 17.0226L37.0726 17.2427C36.5224 15.2911 34.8393 14.9341 34.727 14.8656C31.9939 14.1234 16.4264 14.0953 13.6181 14.8656C11.6924 15.4236 11.3387 17.1304 11.2724 17.2427C10.4876 21.3423 10.4483 26.046 11.2724 30.4353ZM21.4748 27.9392V19.7501L28.5108 23.8508L21.4748 27.9392Z" fill="#D0A550"/>
</g>
<defs>
<clipPath id="clip0">
<rect width="26.9489" height="26.9489" fill="white" transform="translate(10.6865 10.3652)"/>
</clipPath>
</defs>
</svg>
