<svg width="28" height="28" fill="none" xmlns="http://www.w3.org/2000/svg"><path fill-rule="evenodd" clip-rule="evenodd" d="M26.57 13.614a1.587 1.587 0 0 1-2.076 0L14 4.184l-10.494 9.43a1.587 1.587 0 0 1-2.076 0 1.226 1.226 0 0 1 0-1.865L12.962 1.386a1.587 1.587 0 0 1 2.076 0L26.57 11.75c.573.515.573 1.35 0 1.865Z" fill="#313132"/><path d="M12.375 25.375a1.625 1.625 0 1 0 3.25 0V2.625a1.625 1.625 0 1 0-3.25 0v22.75Z" fill="#313132"/><path fill-rule="evenodd" clip-rule="evenodd" d="M15.628 5.63v19.765a1.628 1.628 0 1 1-3.256 0V5.63l-8.885 7.984a1.59 1.59 0 0 1-2.08 0 1.229 1.229 0 0 1 0-1.868L12.785 1.52A1.632 1.632 0 0 1 14 .977a1.621 1.621 0 0 1 1.215.544l11.378 10.224a1.229 1.229 0 0 1 0 1.868 1.59 1.59 0 0 1-2.08 0l-8.885-7.984Zm.275-4.803 11.342 10.191a2.205 2.205 0 0 1 0 3.322c-.945.85-2.44.85-3.385 0l-7.255-6.52v17.575a2.605 2.605 0 1 1-5.21 0V7.82L4.14 14.34c-.946.85-2.44.85-3.385 0a2.205 2.205 0 0 1 0-3.322L12.096.827A2.598 2.598 0 0 1 14 0c.751 0 1.428.318 1.903.827Z" fill="#fff"/></svg>