<svg width="146" height="30" viewBox="0 0 146 30" fill="none" xmlns="http://www.w3.org/2000/svg">
<path fill-rule="evenodd" clip-rule="evenodd" d="M146 0H0V30H146V0ZM14.451 4.92706C14.1517 4.00574 12.8483 4.00574 12.549 4.92706L10.6936 10.6373C10.5597 11.0493 10.1758 11.3283 9.74255 11.3283H3.7384C2.76965 11.3283 2.36694 12.5679 3.15063 13.1373L8.00806 16.6664C8.35852 16.9211 8.50525 17.3724 8.37134 17.7844L6.51599 23.4947C6.21655 24.416 7.27112 25.1821 8.05481 24.6127L12.9122 21.0836C13.2627 20.8289 13.7373 20.8289 14.0878 21.0836L18.9452 24.6127C19.7289 25.1821 20.7834 24.416 20.484 23.4947L18.6287 17.7844C18.4948 17.3724 18.6415 16.9211 18.9919 16.6664L23.8494 13.1373C24.6331 12.5679 24.2303 11.3283 23.2616 11.3283H17.2574C16.8242 11.3283 16.4403 11.0493 16.3064 10.6373L14.451 4.92706ZM42.549 4.92706C42.8483 4.00574 44.1517 4.00574 44.451 4.92706L46.3064 10.6373C46.4403 11.0493 46.8242 11.3283 47.2574 11.3283H53.2616C54.2303 11.3283 54.6331 12.5679 53.8494 13.1373L48.9919 16.6664C48.6415 16.9211 48.4948 17.3724 48.6287 17.7844L50.484 23.4947C50.7834 24.416 49.7289 25.1821 48.9452 24.6127L44.0878 21.0836C43.7373 20.8289 43.2627 20.8289 42.9122 21.0836L38.0548 24.6127C37.2711 25.1821 36.2166 24.416 36.516 23.4947L38.3713 17.7844C38.5052 17.3724 38.3585 16.9211 38.0081 16.6664L33.1506 13.1373C32.3669 12.5679 32.7697 11.3283 33.7384 11.3283H39.7426C40.1758 11.3283 40.5597 11.0493 40.6936 10.6373L42.549 4.92706ZM74.451 4.92706C74.1517 4.00574 72.8483 4.00574 72.549 4.92706L70.6936 10.6373C70.5597 11.0493 70.1758 11.3283 69.7426 11.3283H63.7384C62.7697 11.3283 62.3669 12.5679 63.1506 13.1373L68.0081 16.6664C68.3585 16.9211 68.5052 17.3724 68.3713 17.7844L66.516 23.4947C66.2166 24.416 67.2711 25.1821 68.0548 24.6127L72.9122 21.0836C73.2627 20.8289 73.7373 20.8289 74.0878 21.0836L78.9452 24.6127C79.7289 25.1821 80.7834 24.416 80.484 23.4947L78.6287 17.7844C78.4948 17.3724 78.6415 16.9211 78.9919 16.6664L83.8494 13.1373C84.6331 12.5679 84.2303 11.3283 83.2616 11.3283H77.2574C76.8242 11.3283 76.4403 11.0493 76.3064 10.6373L74.451 4.92706ZM101.549 4.92706C101.848 4.00574 103.152 4.00574 103.451 4.92706L105.306 10.6373C105.44 11.0493 105.824 11.3283 106.257 11.3283H112.262C113.23 11.3283 113.633 12.5679 112.849 13.1373L107.992 16.6664C107.641 16.9211 107.495 17.3724 107.629 17.7844L109.484 23.4947C109.783 24.416 108.729 25.1821 107.945 24.6127L103.088 21.0836C102.737 20.8289 102.263 20.8289 101.912 21.0836L97.0548 24.6127C96.2711 25.1821 95.2166 24.416 95.516 23.4947L97.3713 17.7844C97.5052 17.3724 97.3585 16.9211 97.0081 16.6664L92.1506 13.1373C91.3669 12.5679 91.7697 11.3283 92.7384 11.3283H98.7426C99.1758 11.3283 99.5597 11.0493 99.6936 10.6373L101.549 4.92706ZM133.451 4.92706C133.152 4.00574 131.848 4.00574 131.549 4.92706L129.694 10.6373C129.56 11.0493 129.176 11.3283 128.743 11.3283H122.738C121.77 11.3283 121.367 12.5679 122.151 13.1373L127.008 16.6664C127.359 16.9211 127.505 17.3724 127.371 17.7844L125.516 23.4947C125.217 24.416 126.271 25.1821 127.055 24.6127L131.912 21.0836C132.263 20.8289 132.737 20.8289 133.088 21.0836L137.945 24.6127C138.729 25.1821 139.783 24.416 139.484 23.4947L137.629 17.7844C137.495 17.3724 137.641 16.9211 137.992 16.6664L142.849 13.1373C143.633 12.5679 143.23 11.3283 142.262 11.3283H136.257C135.824 11.3283 135.44 11.0493 135.306 10.6373L133.451 4.92706Z" fill="white"/>
</svg>
