<svg width="22" height="22" viewBox="0 0 22 22" fill="none" xmlns="http://www.w3.org/2000/svg">
<path d="M12.8875 4.69507H9.77637V20.2506C9.77637 19.3915 10.4728 18.695 11.3319 18.695C12.191 18.695 12.8875 19.3915 12.8875 20.2506V4.69507Z" fill="#D0A550"/>
<path d="M20.588 0.806519H-0.000488281V3.91763H20.588C20.9031 3.91628 21.205 3.75196 21.4278 3.46053C21.6506 3.1691 21.7763 2.77422 21.7773 2.36207C21.7763 1.94993 21.6506 1.55505 21.4278 1.26362C21.205 0.972189 20.9031 0.807868 20.588 0.806519Z" fill="#D0A550"/>
<path d="M13.7773 4.69507H16.8885V20.2506C16.8885 21.1097 16.192 21.8062 15.3329 21.8062C14.4738 21.8062 13.7773 21.1097 13.7773 20.2506V4.69507Z" fill="#D0A550"/>
<path d="M5.77734 4.69507H8.88845V20.2506C8.88845 21.1097 8.19201 21.8062 7.3329 21.8062C6.47379 21.8062 5.77734 21.1097 5.77734 20.2506V4.69507Z" fill="#D0A550"/>
<path d="M4.88845 4.69507H1.77734V20.2506C1.77734 19.3915 2.47379 18.6951 3.3329 18.6951C4.19201 18.6951 4.88845 19.3915 4.88845 20.2506V4.69507Z" fill="#D0A550"/>
<rect x="18.7773" y="3.8064" width="1.5" height="5" fill="#D0A550"/>
<circle cx="19.5771" cy="9.3064" r="1.5" fill="#D0A550"/>
</svg>
