<svg width="24" height="25" viewBox="0 0 24 25" fill="none" xmlns="http://www.w3.org/2000/svg">
<path d="M23.9997 10.0339C23.9995 9.80034 23.9915 9.56799 23.9762 9.33713C22.9133 9.33713 4.84178 9.33713 4.26969 9.33713L3.36357 6.39225C3.0139 5.2559 1.92006 4.46228 0.703592 4.46228C0.315291 4.46228 0.000488281 4.77708 0.000488281 5.16538C0.000488281 5.55368 0.315291 5.86849 0.703592 5.86849C1.29898 5.86849 1.85242 6.2627 2.01952 6.80577C3.18377 10.5895 3.07071 10.2238 3.08543 10.267C3.10807 10.3332 3.22609 10.6627 4.40787 13.9717C4.83967 15.1808 6.19811 15.9932 7.78816 15.9932H10.2116L9.55515 17.634C7.50997 17.2891 5.67219 18.8739 5.67219 20.9149C5.67219 22.761 7.16709 24.2898 9.00022 24.2898C10.6114 24.2898 11.9371 23.1161 12.2541 21.618H14.7461C14.878 22.2412 15.1839 22.8175 15.6407 23.2855C16.9482 24.6253 19.0514 24.6257 20.3593 23.2855C20.984 22.6454 21.328 21.8035 21.328 20.9149C21.328 18.8736 19.4899 17.2892 17.4451 17.634L16.7885 15.9932H19.212C20.8003 15.9932 22.1575 15.1826 22.5908 13.9757C24.043 10.0492 23.9997 10.2159 23.9997 10.0339ZM14.7473 20.2118H12.2528C12.069 19.3607 11.5593 18.6295 10.8606 18.1567L11.7262 15.9932H15.274L16.1395 18.1567C15.4409 18.6295 14.9311 19.3607 14.7473 20.2118Z" fill="#D0A550"/>
<path d="M23.7846 7.9308C22.9172 3.69605 19.3881 0.290405 14.9977 0.290405H13.8727C13.5697 0.290405 13.3007 0.484556 13.2054 0.772219L10.8315 7.9308H23.7846Z" fill="#D0A550"/>
</svg>
