<svg width="23" height="28" viewBox="0 0 23 28" fill="none" xmlns="http://www.w3.org/2000/svg">
<path d="M2.85978 11.4494C1.28284 11.4494 0 12.7504 0 14.35V18.5687C0 19.0052 0.349348 19.3597 0.779939 19.3597C1.21053 19.3597 1.55988 19.0052 1.55988 18.5687V14.35C1.55988 13.6226 2.1428 13.0316 2.85978 13.0316H3.11976V11.4494H2.85978ZM19.9864 11.4494H19.7264V13.0316H19.9864C20.7034 13.0316 21.2863 13.6226 21.2863 14.35V18.5687C21.2863 19.0052 21.6356 19.3597 22.0662 19.3597C22.4966 19.3597 22.8462 19.0052 22.8462 18.5687V14.35C22.8462 12.7504 21.5633 11.4494 19.9864 11.4494ZM16.8828 9.07632V5.85952C16.8828 2.8965 14.598 0.46701 11.6815 0.328788C8.50511 0.178206 5.9634 2.81101 5.9634 5.92708V9.07632C5.9634 10.3848 4.91373 11.4494 3.62358 11.4494H2.84364V24.4222C2.84364 26.0216 4.12648 27.3226 5.70342 27.3226H17.1427C18.7197 27.3226 20.0025 26.0216 20.0025 24.4222V11.4494H19.2226C17.9324 11.4494 16.8828 10.3848 16.8828 9.07632ZM15.3227 6.70327H7.52328V5.92708C7.52328 3.68484 9.34923 1.80185 11.6086 1.90876C13.6911 2.00723 15.3227 3.74272 15.3227 5.85952V6.70327Z" fill="#D0A550"/>
<rect x="8.30762" y="15.8998" width="6.23077" height="5.19231" rx="1" fill="white"/>
</svg>
