<svg width="29" height="29" viewBox="0 0 29 29" fill="none" xmlns="http://www.w3.org/2000/svg">
<path d="M14.5 0L27.0574 7.25V21.75L14.5 29L1.94263 21.75V7.25L14.5 0Z" fill="#D0A550"/>
<path d="M-6.33815e-07 14.5L7.25 1.94264L21.75 1.94264L29 14.5L21.75 27.0574L7.25 27.0574L-6.33815e-07 14.5Z" fill="#D0A550"/>
<path d="M6.008 18V15.712C6.008 15.408 6 15.056 5.976 14.792L8.168 18H9.568V12.4H8.088V14.688C8.088 15 8.096 15.352 8.12 15.616L5.928 12.4H4.528V18H6.008ZM10.6217 12.4V18H14.7017V16.72H12.1017V15.808H14.4137V14.536H12.1017V13.68H14.6537V12.4H10.6217ZM22.0072 12.4L21.0552 16.336L19.9912 12.4H18.6952L17.6312 16.336L16.6792 12.4H15.0792L16.7912 18H18.3912L19.3432 14.536L20.2952 18H21.8952L23.6072 12.4H22.0072Z" fill="white"/>
</svg>
