<svg width="18" height="25" viewBox="0 0 18 25" fill="none" xmlns="http://www.w3.org/2000/svg">
<path d="M0.0278136 3.22908C0.0278136 3.22908 4.03572 3.09879 5.9381 4.48888C7.78397 5.83768 8.89324 9.5281 8.89324 9.5281C8.89324 9.5281 10.0025 5.83768 11.8484 4.48888C13.7508 3.09879 17.7587 3.22908 17.7587 3.22908C17.7587 3.22908 18.2995 5.87921 17.7587 7.42843C17.2935 8.76111 15.6479 10.368 15.6479 10.368C15.6479 10.368 15.0134 13.1882 15.2257 14.9873C15.5184 17.4681 17.7587 20.8663 17.7587 20.8663C17.7587 20.8663 12.5981 24.2258 8.89324 24.2258C5.18836 24.2258 0.0278136 20.8663 0.0278136 20.8663C0.0278136 20.8663 2.6294 17.53 2.98296 14.9873C3.23245 13.193 2.56079 10.368 2.56079 10.368C2.56079 10.368 0.976849 8.7382 0.449977 7.42843C-0.165554 5.89825 0.0278136 3.22908 0.0278136 3.22908Z" fill="#D0A550"/>
<rect x="15.999" y="0.22583" width="1.5" height="4" rx="0.75" fill="#D0A550"/>
<rect x="0.700195" y="0.22583" width="1.5" height="4" rx="0.75" fill="#D0A550"/>
<rect x="5.99902" y="13.226" width="1.5" height="5" rx="0.75" fill="white"/>
<rect x="9.99902" y="13.226" width="1.5" height="5" rx="0.75" fill="white"/>
</svg>
