<svg width="28" height="24" viewBox="0 0 28 24" fill="none" xmlns="http://www.w3.org/2000/svg">
<path d="M27.6 9.61109L13.7993 0.709473L0 9.61109L1.56176 11.7495L13.7993 3.70804L26.0368 11.7495L27.6 9.61109Z" fill="#D0A550"/>
<path d="M4.59961 12.3158C4.59961 11.9645 4.78391 11.639 5.08511 11.4583L13.2851 6.53831C13.6018 6.3483 13.9974 6.3483 14.3141 6.53831L22.5141 11.4583C22.8153 11.639 22.9996 11.9645 22.9996 12.3158V22.7096C22.9996 23.2619 22.5519 23.7096 21.9996 23.7096H5.59961C5.04732 23.7096 4.59961 23.2619 4.59961 22.7096V12.3158Z" fill="#D0A550"/>
<path d="M17.476 21.5572C17.4817 21.6011 17.4796 21.6458 17.4699 21.6887C17.4602 21.7317 17.4431 21.7721 17.4195 21.8075C17.3445 21.8576 17.2569 21.8783 17.1704 21.8663H15.8283C15.7475 21.8759 15.6663 21.8528 15.5991 21.8012C15.5734 21.7682 15.5542 21.7293 15.5427 21.6873C15.5313 21.6452 15.5278 21.6009 15.5326 21.5572V17.5149H12.0722V21.5572C12.0833 21.6458 12.063 21.7358 12.0157 21.8075C11.9403 21.8564 11.8529 21.8766 11.7666 21.8651H10.4123C10.3342 21.8724 10.2562 21.8499 10.1908 21.8012C10.1644 21.7699 10.1444 21.7323 10.1323 21.6912C10.1202 21.6501 10.1164 21.6065 10.1211 21.5635V12.0558C10.1164 12.0128 10.1202 11.9692 10.1323 11.9281C10.1444 11.8869 10.1644 11.8494 10.1908 11.818C10.2561 11.7688 10.3341 11.7459 10.4123 11.7529H11.7677C11.8542 11.741 11.9418 11.7617 12.0168 11.8118C12.0405 11.8471 12.0577 11.8875 12.0674 11.9305C12.0771 11.9735 12.0791 12.0182 12.0733 12.0621V15.6576H15.5326V12.0583C15.5284 12.0156 15.532 11.9724 15.543 11.9313C15.554 11.8902 15.5724 11.8521 15.5968 11.8193C15.6643 11.7682 15.7454 11.7456 15.8261 11.7554H17.1682C17.2545 11.7439 17.3419 11.7641 17.4173 11.813C17.4409 11.8484 17.458 11.8888 17.4677 11.9318C17.4774 11.9747 17.4795 12.0194 17.4738 12.0633V21.5572H17.476Z" fill="white"/>
</svg>
