<svg width="26" height="24" viewBox="0 0 26 24" fill="none" xmlns="http://www.w3.org/2000/svg">
<path d="M10.9116 17.6448H11.6693L11.292 16.6475L10.9116 17.6448Z" fill="#D0A550"/>
<path d="M23.8266 10.6936H23.0813L16.4166 4.87402C16.1591 5.31887 15.8169 5.70836 15.4121 6.02016L20.7645 10.6936H5.28533L10.6377 6.02016C10.2329 5.70836 9.89068 5.31836 9.63373 4.87402L2.9691 10.6936H2.17244C0.974004 10.6936 -0.000488281 11.668 -0.000488281 12.8665V21.4191C-0.000488281 22.6175 0.974004 23.592 2.17244 23.592H23.8266C25.025 23.592 25.9995 22.6175 25.9995 21.4191V12.8665C25.9995 11.668 25.025 10.6936 23.8266 10.6936ZM8.01178 18.6566C7.67154 20.5664 4.94154 20.9123 3.541 19.3695C3.25814 19.0582 3.2815 18.5763 3.59279 18.294C3.90408 18.0106 4.386 18.034 4.66885 18.3458C4.93748 18.6418 5.36303 18.8186 5.80736 18.8186C6.23596 18.8186 6.48123 18.5626 6.5117 18.3895C6.54826 18.1863 6.25475 18.0015 5.96834 17.8959C5.20611 17.6155 4.52869 17.3144 4.50025 17.3017C3.9899 17.0747 3.52018 16.3607 3.63443 15.562C3.88133 13.8424 6.17857 13.4463 7.59283 14.6129C8.15666 15.0626 7.83917 15.9814 7.12564 15.9814C6.85478 15.9814 6.64083 15.8172 6.62799 15.7915C6.06025 15.3421 5.19748 15.3934 5.14264 15.7778C5.13553 15.8265 5.1401 15.891 5.19392 15.9428C5.38537 16.0261 5.92111 16.2551 6.49443 16.4664C7.81424 16.9523 8.14381 17.9162 8.01178 18.6566ZM13.228 20.3735C12.9203 20.3735 12.6308 20.1856 12.5156 19.8809L12.2459 19.1684H10.331L10.0583 19.8829C9.90795 20.276 9.46818 20.473 9.07463 20.3232C8.68158 20.1729 8.48455 19.7326 8.63486 19.3396C10.5696 14.2706 10.4833 14.4966 10.4879 14.4854C10.7885 13.7521 11.8341 13.7704 12.1113 14.5047L13.9405 19.3421C14.1299 19.8423 13.7572 20.3735 13.228 20.3735ZM17.5972 20.3887C16.9853 20.3918 15.8829 20.4024 15.7361 20.3775C15.3705 20.3151 15.1029 19.9977 15.1029 19.627V14.7053C15.1029 14.2848 15.4441 13.9436 15.8646 13.9436C16.2856 13.9436 16.6263 14.2848 16.6263 14.7053V18.8688C17.1824 18.8678 17.5241 18.8653 17.5932 18.8653C18.0116 18.8653 18.3524 19.2035 18.3549 19.6224C18.3569 20.0434 18.0177 20.3862 17.5972 20.3887ZM21.8426 16.3927C22.2635 16.3927 22.6043 16.7335 22.6043 17.1545C22.6043 17.5749 22.2635 17.9162 21.8426 17.9162H20.6888V18.8419H21.9954C22.4159 18.8419 22.7571 19.1827 22.7571 19.6036C22.7571 20.0241 22.4159 20.3654 21.9954 20.3654H19.9271C19.5061 20.3654 19.1654 20.0241 19.1654 19.6036V14.7053C19.1654 14.2848 19.5061 13.9436 19.9271 13.9436H21.9954C22.4159 13.9436 22.7571 14.2848 22.7571 14.7053C22.7571 15.1257 22.4159 15.467 21.9954 15.467H20.6888V16.3927H21.8426Z" fill="#D0A550"/>
<path d="M10.8177 3.83941C11.4801 5.49554 13.7847 5.86264 14.9256 4.3684C16.1273 2.79621 14.9878 0.537109 13.0247 0.537109C11.3263 0.537109 10.1624 2.26997 10.8177 3.83941Z" fill="#D0A550"/>
</svg>
