<svg width="24" height="22" viewBox="0 0 24 22" fill="none" xmlns="http://www.w3.org/2000/svg">
<path d="M0.00173824 18.5198H24.0005V14.7295C23.9982 14.0852 23.7143 13.4678 23.2108 13.0122C22.7073 12.5566 22.0251 12.2997 21.3131 12.2976H2.6891C1.97686 12.2994 1.29434 12.5562 0.79059 13.0118C0.286841 13.4674 0.00279694 14.085 0.000488281 14.7295L0.00173824 18.5198Z" fill="#D0A550"/>
<rect x="2.6665" y="19.4084" width="18.6667" height="1.77778" rx="0.888889" fill="#D0A550"/>
<path d="M2.71631 11.1371H21.5974V5.44907C21.5951 4.48225 21.2102 3.55563 20.5269 2.87162C19.8437 2.18762 18.9174 1.80181 17.9506 1.79846H15.5726C14.572 1.09644 13.3759 0.726987 12.1537 0.742407C10.9315 0.726987 9.73541 1.09644 8.73481 1.79846H6.36819C5.40081 1.80114 4.47381 2.18661 3.78977 2.87066C3.10572 3.5547 2.72025 4.48169 2.71757 5.44907V11.1371H2.71631Z" fill="#D0A550"/>
<path d="M5.58281 8.75054H10.7593V6.72453C10.7586 6.37883 10.621 6.04748 10.3765 5.80303C10.1321 5.55858 9.80071 5.42096 9.45501 5.42029H6.88578C6.54008 5.42096 6.20873 5.55858 5.96429 5.80303C5.71984 6.04748 5.58221 6.37883 5.58154 6.72453V8.75054H5.58281Z" fill="white"/>
<path d="M13.5548 8.75017H18.7312V6.72416C18.7306 6.37846 18.5929 6.04711 18.3485 5.80266C18.104 5.55822 17.7727 5.42059 17.427 5.41992H14.8578C14.5119 5.42059 14.1805 5.55817 13.9358 5.80259C13.6912 6.047 13.5532 6.37835 13.5522 6.72416V8.75017H13.5548Z" fill="white"/>
</svg>
