<svg width="23" height="24" viewBox="0 0 23 24" fill="none" xmlns="http://www.w3.org/2000/svg">
<path d="M14.9556 0.838745H7.95557L11.4556 7.83874L14.9556 0.838745Z" fill="#D0A550"/>
<path d="M6.63415 11.665H10.4603L6.19366 0.998413C5.95696 1.09881 5.73914 1.24485 5.55114 1.4329L0.195868 6.8331C0.00256908 7.02801 -0.053134 7.32068 0.0549929 7.57305L2.21124 12.6043C2.3863 13.0128 2.90353 13.1433 3.25154 12.865L5.67283 10.928L6.63415 11.665Z" fill="#D0A550"/>
<path d="M22.7151 6.83322L17.3578 1.43106C17.1709 1.24409 16.9537 1.09859 16.7174 0.998413L12.4507 11.6651H16.2768L17.2382 10.9281L19.6595 12.8651C20.0065 13.1428 20.5243 13.0139 20.6998 12.6044L22.856 7.57313C22.9641 7.3208 22.9084 7.02809 22.7151 6.83322Z" fill="#D0A550"/>
<path d="M16.3476 13.0126H12.1294V23.8387H15.7851C16.9415 23.8387 17.8646 22.8665 17.8038 21.7112L16.3476 13.0126Z" fill="#D0A550"/>
<path d="M10.7822 13.0126H6.56396L5.10782 21.711C5.04704 22.8661 5.96956 23.8387 7.12652 23.8387H10.7822V13.0126Z" fill="#D0A550"/>
</svg>
