<svg width="27" height="32" viewBox="0 0 27 32" fill="none" xmlns="http://www.w3.org/2000/svg">
<path d="M12.3617 30.9072L12.3617 30.9073C12.6523 31.2929 13.0679 31.5 13.501 31.5C13.934 31.5 14.3497 31.2929 14.6403 30.9081L12.3617 30.9072ZM12.3617 30.9072L3.10557 18.6269C2.61941 17.9804 1.93688 16.8629 1.59609 16.1553C1.54461 16.0477 0.5 13.8374 0.5 11.8209C0.5 5.63937 6.26783 0.5 13.5 0.5C20.7322 0.5 26.5 5.63937 26.5 11.8209C26.5 13.8081 25.4885 15.9799 25.4072 16.1546C25.4065 16.1559 25.406 16.1571 25.4055 16.1582C25.0641 16.8662 24.3838 17.9814 23.8977 18.6265L14.6405 30.9078L12.3617 30.9072ZM24.8423 16.0481L24.8428 16.0471C24.8531 16.0255 25.1174 15.4676 25.38 14.6736C25.6403 13.8866 25.9118 12.8299 25.9118 11.8209C25.9118 5.73308 20.28 0.8907 13.5 0.8907C6.71996 0.8907 1.08824 5.73308 1.08824 11.8209C1.08824 12.8285 1.35896 13.8832 1.61888 14.6695C1.75026 15.0669 1.88198 15.4049 1.98194 15.6459C2.03198 15.7666 2.07422 15.8633 2.10467 15.9314C2.11991 15.9655 2.1322 15.9924 2.14104 16.0115C2.14867 16.0281 2.15686 16.0456 2.15511 16.0418L2.15508 16.0418L2.15769 16.0473C2.48934 16.74 3.15907 17.8349 3.63174 18.4625L3.63186 18.4626L12.8892 30.7441C12.8892 30.7441 12.8892 30.7442 12.8893 30.7442C12.9369 30.8075 12.9997 30.8871 13.0729 30.9526C13.1449 31.0169 13.2905 31.1252 13.5 31.1252C13.7095 31.1252 13.8551 31.0169 13.9271 30.9526C14.0003 30.8871 14.0631 30.8075 14.1107 30.7442C14.1108 30.7442 14.1108 30.7441 14.1108 30.7441L23.3681 18.4626L23.3683 18.4625C23.8408 17.835 24.5106 16.7411 24.8423 16.0481Z" fill="#D0A550" stroke="#D0A550"/>
<path fill-rule="evenodd" clip-rule="evenodd" d="M13.8798 12.0174C13.8397 11.0251 13.8264 9.78743 13.8264 8.55778C13.8264 7.01515 13.6728 5.05552 15.2179 5.00128C15.8283 4.97906 16.1716 5.24935 16.5207 5.50008C16.7925 5.69658 17.0281 5.78104 17.0929 6.13136C17.2121 6.79109 16.678 7.1414 16.3795 7.46504C15.6337 8.26525 15.051 9.29575 14.5417 10.3591C14.2842 10.8891 14.0247 11.3736 13.8798 12.0174Z" fill="#BB8E35"/>
<path fill-rule="evenodd" clip-rule="evenodd" d="M13.3267 12.1329C12.8832 10.3218 11.9209 9.05035 10.9004 7.71044C10.7564 7.52106 10.5732 7.30056 10.3834 7.07828C10.2137 6.88089 9.99146 6.6266 10.0086 6.32964C10.0306 5.96688 10.4426 5.67169 10.7039 5.49831C11.1808 5.18 12.1049 4.80124 12.702 5.24846C13.3601 5.74282 13.4335 7.27655 13.4335 8.40841C13.4335 9.7661 13.3343 10.8615 13.3267 12.1329Z" fill="#BB8E35"/>
<path fill-rule="evenodd" clip-rule="evenodd" d="M14.289 13.6132C14.5923 11.0827 15.7778 8.86435 17.3219 7.29416C17.6462 6.96518 18.0849 6.3588 18.7849 6.6122C19.2942 6.79625 19.9418 7.56623 19.8903 8.30865C19.8436 9.00572 19.0482 9.1213 18.4998 9.37559C16.5894 10.2443 15.3429 11.9256 14.289 13.6132Z" fill="#BB8E35"/>
<path fill-rule="evenodd" clip-rule="evenodd" d="M12.8975 13.6639C12.8603 13.6977 12.8088 13.5848 12.7735 13.5306C12.497 13.1056 12.228 12.6352 11.8999 12.2164C10.9906 11.0358 9.79959 10.0682 8.42069 9.38993C7.90758 9.14008 7.08546 9.00849 7.17225 8.19228C7.20468 7.89709 7.42308 7.41963 7.58236 7.19379C7.82079 6.85682 8.29385 6.56163 8.84987 6.695C9.37252 6.82214 9.70061 7.22847 10.0449 7.59301C11.4603 9.11252 12.4502 11.3167 12.8975 13.6639Z" fill="#BB8E35"/>
<path fill-rule="evenodd" clip-rule="evenodd" d="M13.3267 16.5571C14.2051 16.4442 14.7773 17.1644 14.7773 17.9539C14.7773 18.5683 14.414 19.1374 13.8675 19.317C12.8384 19.6557 12.1507 18.6501 12.207 17.8535C12.248 17.1991 12.6648 16.6425 13.3267 16.5571Z" fill="#BB8E35"/>
<path fill-rule="evenodd" clip-rule="evenodd" d="M14.7897 14.5454C14.763 14.5383 14.7897 14.5303 14.7897 14.5116C15.3925 13.0659 16.3739 11.6665 17.5899 10.6706C18.0028 10.3319 18.4482 9.96556 18.8927 9.73883C19.4029 9.47832 20.2422 9.3654 20.783 9.68904C21.1645 9.91666 21.5574 10.3923 21.5326 10.9534C21.5059 11.542 20.9823 11.9439 20.3557 12.0008C19.9895 12.0337 19.6585 11.9812 19.3562 12.0008C17.1111 12.1475 15.8693 13.234 14.7897 14.5454Z" fill="#BB8E35"/>
<path fill-rule="evenodd" clip-rule="evenodd" d="M12.3453 14.6278C12.3453 14.6464 12.3272 14.6375 12.3272 14.6278C11.2848 13.3403 10.0182 12.2165 7.672 12.1C6.85179 12.06 6.11455 12.1444 5.70921 11.7008C5.12743 11.0642 5.77502 10.0808 6.31674 9.77137C7.23424 9.24679 8.41496 9.89407 9.04538 10.3546C9.53007 10.7143 9.97225 11.1212 10.3644 11.5683C11.2228 12.4992 11.9161 13.4212 12.3453 14.6278Z" fill="#BB8E35"/>
<path fill-rule="evenodd" clip-rule="evenodd" d="M14.7774 15.7756C14.7449 15.7898 14.7077 15.8307 14.7402 15.7756C15.585 14.2536 17.0366 13.1015 18.7831 12.5668C19.4039 12.3809 20.2852 12.2511 20.9948 12.4165C21.6738 12.5739 22.33 13.6337 21.8159 14.3788C21.6004 14.6891 21.176 14.874 20.639 14.8438C19.5089 14.7825 18.8088 14.0712 17.5527 14.1796C16.9653 14.2438 16.4027 14.4373 15.9114 14.7442C15.4713 15.0233 15.0875 15.3724 14.7774 15.7756Z" fill="#BB8E35"/>
<path fill-rule="evenodd" clip-rule="evenodd" d="M12.4702 15.8582C11.7359 15.2491 11.032 14.4934 9.75877 14.312C9.13492 14.219 8.49549 14.3 7.92092 14.5449C7.32769 14.7841 6.36537 15.178 5.61955 14.7939C4.93572 14.4382 4.75165 13.3251 5.40591 12.8156C5.93905 12.4004 6.91377 12.3426 7.7254 12.4831C8.47123 12.6111 9.17795 12.9499 9.68724 13.2477C10.9185 13.9661 11.7683 14.7005 12.4531 15.8422C12.4493 15.8555 12.4598 15.8573 12.4702 15.8582Z" fill="#BB8E35"/>
</svg>
