<svg width="13" height="7" viewBox="0 0 13 7" fill="none" xmlns="http://www.w3.org/2000/svg">
<path d="M6.74373 6.7437L11.9937 1.49375C12.1578 1.32965 12.25 1.10708 12.25 0.875015C12.25 0.642947 12.1578 0.420383 11.9937 0.256286C11.8296 0.0921883 11.6071 0 11.375 0C11.1429 0 10.9203 0.0921883 10.7562 0.256286L6.125 4.88755L1.49375 0.256286C1.32965 0.0921883 1.10709 0 0.875019 0C0.64295 0 0.420385 0.0921883 0.256287 0.256286C0.0921892 0.420383 0 0.642947 0 0.875015C0 1.10708 0.0921892 1.32965 0.256287 1.49375L5.50627 6.7437C5.58752 6.82496 5.68398 6.88941 5.79014 6.93339C5.89631 6.97737 6.01009 7 6.125 7C6.23991 7 6.35369 6.97737 6.45986 6.93339C6.56602 6.88941 6.66248 6.82496 6.74373 6.7437Z" fill="#262626"/>
</svg>
